<svg xmlns="http://www.w3.org/2000/svg" id="Layer_2" viewBox="0 0 355.55 533.82"><g id="_&#xEB;&#xEE;&#xE9;_1"><circle cx="177.77" cy="177.77" r="167.77" fill="#fff" stroke="#43e3a1" stroke-miterlimit="10" stroke-width="20"></circle><g><polygon points="189.19 441.33 199.99 517.38 216.78 511.96 213.88 480.33 189.19 441.33" fill="#fff" stroke="#201f45" stroke-miterlimit="10"></polygon><path d="M199.44,533.32l.78-13.49-1.66-7.33,19.74-3.24,3.09,8.38,20.1,8.25s5.92,2.92,6.03,7.43c-5.03,0-31.5,0-31.5,0l-7-3.52,.09,3.52h-9.67Z" fill="#b7c2e2" stroke="#201f45" stroke-miterlimit="10"></path><g><path d="M216.02,533.32s26.47,0,31.5,0c-.02-.91-.28-1.75-.68-2.52l-35.41,.21,4.6,2.31Z" fill="#201f45" stroke="#201f45" stroke-miterlimit="10"></path><polygon points="209.05 531.02 199.57 531.08 199.44 533.32 209.11 533.32 209.05 531.02" fill="#201f45" stroke="#201f45" stroke-miterlimit="10"></polygon></g><polygon points="142.56 467.03 136.54 511.96 119.74 517.38 125.6 454.92 142.56 467.03" fill="#fff" stroke="#201f45" stroke-miterlimit="10"></polygon><path d="M115.72,533.32l2.87-24.06h19.46l-.38,8.38,20.1,8.25s5.92,2.92,6.03,7.43c-5.03,0-31.5,0-31.5,0l-7-3.52,.09,3.52h-9.67Z" fill="#b7c2e2" stroke="#201f45" stroke-miterlimit="10"></path><g><path d="M132.31,533.32s26.47,0,31.5,0c-.02-.91-.28-1.75-.68-2.52l-35.41,.21,4.6,2.31Z" fill="#201f45" stroke="#201f45" stroke-miterlimit="10"></path><polygon points="125.33 531.02 115.85 531.08 115.72 533.32 125.39 533.32 125.33 531.02" fill="#201f45" stroke="#201f45" stroke-miterlimit="10"></polygon></g><path d="M192.4,225.53l18.27,139.68,5.96,126.4h-21.83s-28.28-102.18-21.13-125.08c-30.08-56.46-49.59-101.91-38.76-141.01h57.49Z" fill="#201f45" stroke="#201f45" stroke-miterlimit="10"></path><path d="M183.85,225.53l-19.15,138.4-23.85,129.02h-19.51s-.25-100.97,7.81-131.71c-.82-51.11-31.17-110.42,1.06-135.71h53.64Z" fill="#201f45" stroke="#201f45" stroke-miterlimit="10"></path><g><path d="M279.68,139.2c-2.36-5.36-6.14-15.09-8.74-13.33-1.67,1.13-8.13,7.95-12.4,13.72-.48-1.05-1.08-2.07-1.67-2.99,3.22-.32,5.58-3.34,3.74-6.11-1.28,1.93-7.82,4.32-7.82,4.32l1.88,12.24s0,.03,0,.05l.23,1.47h0l.34,2.18-5.96,7.39,6.53,11.91,10.29-11.68s15.93-13.81,13.57-19.16Z" fill="#fff" stroke="#201f45" stroke-miterlimit="10"></path><path d="M157.9,128.5c-12.61,9.15,14.64,54.66,43.13,77.57,7.18,5.78,17.27,5.68,23.85-.21,19.13-17.12,40.88-40.85,40.88-40.85l-13.63-12.13s-31.58,26.81-38.35,32.87c-6.99-15.53-37.66-70.48-55.88-57.26Z" fill="#b7c2e2" stroke="#201f45" stroke-miterlimit="10"></path><g><polygon points="167.36 118.33 168.03 133.53 149.96 133.53 148.24 105.76 153.04 99.68 167.36 118.33" fill="#fff" stroke="#201f45" stroke-miterlimit="10"></polygon><path d="M178.77,91.82s2,29.35-4.78,30.56c-6.78,1.2-18.48-6.4-22.99-14.54-4.51-8.14-7.58-18.2-7.58-18.2l13.27-12.79,22.08,14.98Z" fill="#fff" stroke="#201f45" stroke-miterlimit="10"></path><path d="M162.61,74.24s2.45-6.5,1.91-11.37c-.54-4.86-4.71-7.6-10.61-6.4-5.91,1.2-7.62,5.79-7.16,8.74,.46,2.96,6.43,10.66,6.43,10.66l9.44-1.64Z" fill="#4e5ba5" stroke="#201f45" stroke-miterlimit="10"></path><path d="M168.2,88.82s-2.81,6.94-16.28,5.19c.07,2.95,1.6,5.3-.91,8.04-2.5,2.73-.11,6.23-.11,6.23l-2.31,3.28s-.64-4.91-3.12-8.58c-2.47-3.68-8.03-7.38-7.36-18.2,.67-10.82,9.89-20.12,21.15-11.26,5.87-8.31,16.63-4.65,21.65,3.88,4.62,7.85,3.57,16.01-2.87,16.89-5.98,.82-9.86-5.47-9.86-5.47Z" fill="#4e5ba5" stroke="#201f45" stroke-miterlimit="10"></path><path d="M152.79,100.63s-1.24-2.44-3.52-1.4c-2.28,1.04,1.12,10.52,3.73,10.93" fill="#fff" stroke="#201f45" stroke-miterlimit="10"></path></g><path d="M266.68,118.8l8.44,6.16c.13,.09,.19,.25,.17,.4l-6.25,32.08c-.06,.32-.47,.4-.68,.14l-8.05-9.24c-.07-.09-.1-.21-.08-.33l5.86-29c.05-.27,.36-.38,.59-.22Z" fill="#4e5ba5" stroke="#201f45" stroke-miterlimit="10"></path><path d="M164.43,126.56c-9.25-1.59-21.43,.87-25.86,3.07-13.21,6.57-8.36,95.9-8.36,95.9h62.19c-3.26-25.23,11.4-92.2-27.97-98.98Z" fill="#b7c2e2" stroke="#201f45" stroke-miterlimit="10"></path><path d="M122.71,209.33l24.3,22.38s1.44,16.43,4.44,23.07c3.01,6.64-13,3.64-16.03-2.76-3.03-6.4,.84-14.78,.84-14.78l-35.31-27.91h21.75Z" fill="#fff" stroke="#201f45" stroke-miterlimit="10"></path><path d="M149.36,132.25c-8.95-13.89-58.26,21.41-73.23,53.63-1.84,3.96-.75,8.79,2.63,11.82,20.52,18.43,53.13,38.65,53.13,38.65l9.64-14.6s-32.02-26.23-39.24-32.39c6.85-4.02,21-12.87,32.39-23.17" fill="#b7c2e2" stroke="#201f45" stroke-miterlimit="10"></path></g></g></g></svg>