<svg xmlns="http://www.w3.org/2000/svg" id="Layer_2" viewBox="0 0 355.55 526.99"><g id="_&#xEB;&#xEE;&#xE9;_1"><circle cx="177.77" cy="177.77" r="167.77" fill="#fff" stroke="#43e3a1" stroke-miterlimit="10" stroke-width="20"></circle><g><g><polygon points="279.75 116.84 281.33 136.81 300.93 137.66 293.03 106.7 279.75 116.84" fill="#fff" stroke="#201f45" stroke-miterlimit="10"></polygon><path d="M271.37,120.49c-2.49-.07-4.79-.44-6-1.42-7.17-10.43,1-38.54,1-38.54l11.46-4.83,14.56,9.08,.83,18.84c.22,5.03-2.19,9.85-6.5,13h0c-4.61,2.59-9.94,4.02-15.35,3.87Z" fill="#fff" stroke="#201f45" stroke-miterlimit="10"></path><path d="M290.1,95.46c-.8-3.17-.38-10.47-3.61-9.94-2.35,.39-10.41,.72-13.12,.72-6.46,0-17.98-2.53-17.98-12.36,0-4.92,4.77-9.15,7.79-10.41,2.96-1.24,6.31-1.18,9.34-.12,7.11,2.49,16.55,7.97,20.31,7.22,6.33-1.27,12.64,2.44,12.56,7.82-.1,5.75-3.09,14.39-5.92,19.88-1.63,3.18-3.82,6.03-6.45,8.44h0l-2.93-11.24Z" fill="#4e5ba5" stroke="#201f45" stroke-miterlimit="10"></path><path d="M290.97,102.48c1.47,.47,3.42,.05,4.88-1.17,1.88-1.57,2.25-3.87,.81-5.14-1.44-1.27-4.13-1.03-6.02,.54-1.04,.86-1.61,1.95-1.68,2.96" fill="#fff" stroke="#201f45" stroke-miterlimit="10"></path></g><g><path d="M224.63,132.31c-.31-.93-1.69-4.04-7.16-8.27-4.91-3.8-17.44-8.7-12.01-12.46,6.71,.54,14.66,.36,14.66,.36,4.03,.72,8.75,5.74,11.1,9.42l5.86,12.19s-2.7,5.98-2.77,6.29l-2.81-.53c-1.92-2.7-4.25-5.04-6.87-7Z" fill="#fff" stroke="#201f45" stroke-miterlimit="10"></path><path d="M224.34,128.88s0-.36-.17-1c.87,.17,1.74,.29,2.6,.38,2.77,1.69,5.59,3.29,8.37,4.95-1.18,1.46-2.84,3.51-2.93,3.68l-20.39-7.24s-.22-2.79,4.3-2.7c4.53,.09,8.22,1.93,8.22,1.93Z" fill="#fff"></path></g><polygon points="255.4 173.7 223.95 144.47 234.81 128.23 277.83 148.56 259.1 181.48 255.4 173.7" fill="#b7c2e2" stroke="#201f45" stroke-miterlimit="10"></polygon><path d="M290.34,124.91c44.85-9.3,37.04,139.23,37.04,139.23h-70.96s-1.02-25.86-3.61-58.64c-2.2-27.81,13.4-59.21,37.53-80.58Z" fill="#b7c2e2" stroke="#201f45" stroke-miterlimit="10"></path><g><path d="M266.97,509.84s-6.99,6.48-22.92,10.54c-3.51,.89-7.29-.3-7.29,5.49h19.34l16.08-2.78v2.78h8.69s2.42-14.21-2.66-16.03h-11.24Z" fill="#222c53"></path><path d="M267.95,499.63l-.98,10.2h0c3.17,2.2,7.33,2.34,10.64,.36l.6-.36,1.8-10.2h-12.06Z" fill="#fff" stroke="#201f45" stroke-miterlimit="10"></path></g><g><path d="M166.39,171.44c-.98-.1-4.31-.75-9.66-5.14-4.8-3.94-12.38-15.06-14.83-8.92,2.02,6.42,3.63,14.21,3.63,14.21,1.61,3.77,7.55,7.25,11.66,8.71l13.19,2.99s5.23-3.96,5.51-4.11l-1.15-2.61c-3.06-1.26-5.87-3.02-8.36-5.13Z" fill="#fff" stroke="#201f45" stroke-miterlimit="10"></path><path d="M162.97,171.92s-.36,.07-1.01,.05c.36,.81,.67,1.63,.95,2.45,2.26,2.32,4.46,4.71,6.69,7.05,1.16-1.48,2.79-3.55,2.93-3.68l-11.61-18.26s-2.77,.4-1.67,4.8c1.1,4.39,3.71,7.59,3.71,7.59Z" fill="#f7b58e"></path></g><g><path d="M335.25,495.56s-6.99,6.48-22.92,10.54c-3.51,.89-7.29-.3-7.29,5.49h19.34l16.08-2.78v2.78h8.69s2.42-14.21-2.66-16.03h-11.24Z" fill="#222c53"></path><path d="M336.23,485.36l-.98,10.2h0c3.17,2.2,7.33,2.34,10.64,.36l.6-.36,1.8-10.2h-12.06Z" fill="#fff" stroke="#201f45" stroke-miterlimit="10"></path></g><path d="M327.38,264.13s-5.68,30.08-.6,92.35c.9,11,3.39,21.81,7.4,32.09,13.67,35.02,15.54,99.66,15.54,99.66h-15.63l-55.1-157.55,48.38-66.55Z" fill="#201f45" stroke="#201f45" stroke-miterlimit="10"></path><path d="M300.93,173.93s-12.26,45.7-45.52,49.91c-33.26,4.21-87.98-37.88-87.98-37.88l6.01-12.03,57.73,16.17c8.79,2.46,19.76-1.64,24.11-9.67" fill="#b7c2e2" stroke="#201f45" stroke-miterlimit="10"></path><path d="M256.42,264.13l10.32,238.23h13.98s15.68-55.54,14.5-99.33c-.37-13.87,1.98-27.69,7.16-40.56,21.33-53.03,25-98.34,25-98.34h-70.96Z" fill="#201f45" stroke="#201f45" stroke-miterlimit="10"></path><polygon points="134.35 148.56 184.56 186.35 241.99 141.46 195.09 106.7 134.35 148.56" fill="#201f45" stroke="#201f45" stroke-miterlimit="10"></polygon><path d="M204.12,182.53l-30.68-8.59-6.01,12.03s15.53,11.94,35.06,22.47" fill="#b7c2e2" stroke="#201f45" stroke-miterlimit="10"></path><path d="M300.06,173.7c-.12,.45-12.5,45.17-44.77,49.25-30.1,3.81-78.83-31.38-86.31-36.95-.38,.47-.77,.94-1.17,1.39,7.21,5.41,51.44,37.66,82.65,37.66,1.73,0,3.41-.1,5.05-.31,33.47-4.24,46.16-50.11,46.28-50.57l-1.74-.47Z" fill="#0f054c"></path><g><path d="M157.82,180.45l10.81,2.45c1.04-2.62,2.37-5.07,3.95-7.33-2.22-1.13-4.3-2.53-6.19-4.12-.98-.1-4.3-.75-9.63-5.12" fill="#fff" stroke="#201f45" stroke-miterlimit="10"></path><path d="M169.35,181.21c.72-1.58,1.55-3.08,2.48-4.52l-10.91-17.15s-2.77,.4-1.67,4.8c1.1,4.39,3.71,7.59,3.71,7.59" fill="#fff" stroke="#201f45" stroke-miterlimit="10"></path></g><g><path d="M221.16,122.48c-.12,0-.25,.02-.37,.03,3.06,2.92,4,5.02,4.25,5.76,1.27,.95,2.47,2,3.59,3.13,.13-1.12,.32-2.2,.55-3.27-2.91-1.51-5.59-3.42-8.02-5.65Z" fill="#fff"></path><path d="M223.12,124.17c-1.5-.54-3.9-1.22-6.61-1.27-4.53-.09-4.3,2.7-4.3,2.7l16.41,5.83" fill="#fff" stroke="#201f45" stroke-miterlimit="10"></path></g><polygon points="279.75 135.54 279.75 125.72 296.14 118.9 302.1 126.46 279.75 135.54" fill="#b7c2e2" stroke="#201f45" stroke-miterlimit="10"></polygon></g><g><polygon points="98.01 157.44 118.69 196.4 95.9 195.3 94.3 156.18 98.01 157.44" fill="#fff" stroke="#201f45" stroke-miterlimit="10"></polygon><polygon points="65.52 140.17 84.63 140.15 92.55 263.65 58.31 263.65 65.52 140.17" fill="#4e5ba5" stroke="#201f45" stroke-miterlimit="10"></polygon><g><path d="M30.44,502.73s-4.72,3.71-3.86,8.44c.87,4.73,2.09,15.81,2.09,15.81h4.86l-.15-10.34c.01-.68,10.41,10.34,12.18,10.34h25.7s1.71-6.97-13.38-9.21c-15.09-2.24-27.43-15.05-27.43-15.05Z" fill="#222c53"></path><path d="M41.58,498.02l3.48,9.07c.86,2.49,2.53,4.6,4.74,6.02,2.45,1.57,6.29,3.76,12,5.45-6.98,5.96-18.09-.26-24.45-4.67-3.1-2.15-5.29-5.35-6.21-9l-1.46-6.87h11.89Z" fill="#fff" stroke="#201f45" stroke-miterlimit="10"></path></g><g><path d="M79.39,502.73s-4.72,3.71-3.86,8.44c.87,4.73,2.09,15.81,2.09,15.81h4.86l-.15-10.34c.01-.68,10.41,10.34,12.18,10.34h25.7s1.71-6.97-13.38-9.21c-15.09-2.24-27.43-15.05-27.43-15.05Z" fill="#222c53"></path><path d="M90.53,498.02l3.48,9.07c.86,2.49,2.53,4.6,4.74,6.02,2.45,1.57,6.29,3.76,12,5.45-6.98,5.96-18.09-.26-24.45-4.67-3.1-2.15-5.29-5.35-6.21-9l-1.46-6.87h11.89Z" fill="#fff" stroke="#201f45" stroke-miterlimit="10"></path></g><path d="M50.87,263.65s-3.21,18.46,15.25,109.19c-14.94,47.29,8.99,126.4,8.99,126.4h17.44l11.88-235.6H50.87Z" fill="#201f45" stroke="#201f45" stroke-miterlimit="10"></path><path d="M82.53,140.17l6.2,149.85,20.54-8.79s-9.25-28.13-8.37-67.21c-3.14-28.26,12.89-13.37-6.75-67.79-7.31-6.09-11.61-6.07-11.61-6.07Z" fill="#b7c2e2" stroke="#201f45" stroke-miterlimit="10"></path><path d="M85.21,124.7l-2.41,12.64c-1.06,5.56-7.37,8.31-12.17,5.31l-8.43-5.28,15.05-34.01,7.95,21.35Z" fill="#fff" stroke="#201f45" stroke-miterlimit="10"></path><path d="M34.08,263.65s-22.86,18.46-4.39,109.19c-14.94,47.29-1.76,126.4-1.76,126.4h15.66l44.05-235.6H34.08Z" fill="#201f45" stroke="#201f45" stroke-miterlimit="10"></path><path d="M65.52,127.47s-19.29,10.84-25.29,20.52c-5.71,9.23-7.69,30.23-8.24,48.92-.76,25.67-13.15,93.11-13.15,93.11h51.72l1.29-146.81-6.33-15.74Z" fill="#b7c2e2" stroke="#201f45" stroke-miterlimit="10"></path><path d="M103.6,86.8c-11.7-2.97-22.95,9.03-22.95,9.03l-8.8,47.39-13.53-20.86s-.77-28.34,12.31-47.11c9.37-11.36,27.35-8.1,36.44,2.95,4.42,5.38,5.34,12.8,4.92,19.63-.58,9.17-3.17,61.8-3.17,61.8l-26.8-19.85s.64-5.35,3.21-15.08c4.41-16.75,26.24-35.91,18.38-37.9Z" fill="#212b53"></path><path d="M77.14,95.1c1.73-.7,3.96,.46,4.99,2.6,1.03,2.14,.46,4.44-1.27,5.15-1.73,.7-3.96-.46-4.99-2.6-1.03-2.14-.46-4.44,1.27-5.15Z" fill="#fff" stroke="#201f45" stroke-miterlimit="10"></path><path d="M89.7,126.92c2.17,.8,4.31,1.25,5.72,.74,10.17-7.37,13.85-36.82,13.85-36.82l-8.06-8.56-16.04,3.53-7.91,17.54c-2.11,4.68-1.87,10.09,.66,14.56h0c3,4.06,7.05,7.27,11.78,9.01Z" fill="#fff" stroke="#201f45" stroke-miterlimit="10"></path><path d="M106.27,86.19c-.84,8.91-25.63,9.64-25.63,9.64l-1.29-12.06,14.45-7.96,11.44,6.88s1.15,2.01,1.02,3.49Z" fill="#212b53"></path><path d="M105.73,87.91c-.82,3.32,2.53,9.09,2.53,9.09l1.97-3.56-.05-3.09-1.95-2.41s-1.68-3.35-2.5-.04Z" fill="#212b53"></path><path d="M45.51,148c-25.02,2.92-13.2,67.48-7.83,93.98,1.32,6.52,7.99,10.5,14.34,8.5,21.77-6.87,53.58-35.38,53.58-35.38l-5.04-6.35-42.26,9.87s16.21-74-12.8-70.62Z" fill="#fff" stroke="#201f45" stroke-miterlimit="10"></path><path d="M95.57,193.59l-8.17,50.58c-.24,1.46,.89,2.79,2.38,2.79h32.35c1.18,0,2.19-.86,2.38-2.03l8.03-50.58c.23-1.46-.9-2.79-2.38-2.79h-32.21c-1.18,0-2.19,.86-2.38,2.02Z" fill="#201f45" stroke="#201f45" stroke-miterlimit="10"></path><path d="M131.48,215.99c.2-1.78,.03-2.89-.56-6.57-.77-4.78-.57-12.28-5.45-8.54-4.62,5.79-5.15,11.95-5.15,11.95-.94,3.4,1.14,8.12,3.08,10.68l3.36,7.32s5.8-6.75,4.73-14.84Z" fill="#fff" stroke="#201f45" stroke-miterlimit="10"></path><path d="M110.31,211.22c0,1.36,1.1,2.47,2.47,2.47s2.47-1.11,2.47-2.47-1.11-2.47-2.47-2.47-2.47,1.11-2.47,2.47Z" fill="#b7c2e2" stroke="#201f45" stroke-miterlimit="10"></path></g></g></svg>