<svg class="initial-row-icon" xmlns:svg="http://www.w3.org/2000/svg" xmlns="http://www.w3.org/2000/svg" width="33"
  height="25" viewBox="0 0 26.458334 18.89125">
  <g id="layer1" transform="translate(0,-278.1088)">
    <g id="g1066" transform="translate(-0.75595286,-27.214286)">
      <path class="color-icons" fill="#242b49" style="stroke-width:0.13780448"
        d="m 5.7899663,323.72214 c -1.7132894,-0.15098 -2.7623337,-0.84185 -3.0945218,-2.03796 -0.1927305,-0.69396 -0.1927305,-13.28469 0,-13.97866 0.3469632,-1.2493 1.3500768,-1.87331 3.2903797,-2.04683 1.7151513,-0.15339 14.8430018,-0.15339 16.5581548,0 1.940302,0.17352 2.943416,0.79753 3.290379,2.04683 0.19273,0.69397 0.19273,13.2847 0,13.97866 -0.346963,1.24931 -1.350077,1.87331 -3.290379,2.04683 -1.556941,0.13924 -15.1550008,0.13204 -16.7540127,-0.009 z m 17.9998397,-1.40406 c 0.99105,-0.4402 0.948186,-0.095 0.948186,-7.63531 0,-6.58095 -0.0078,-6.78207 -0.277764,-7.12522 -0.561206,-0.71347 -0.619748,-0.71759 -10.195327,-0.71759 -9.575579,0 -9.6341211,0.004 -10.1953277,0.71759 -0.2699222,0.34315 -0.2777625,0.54427 -0.2777625,7.12522 0,7.31548 -0.017191,7.13783 0.7305375,7.54923 0.5441527,0.29939 2.3896132,0.35701 10.6382777,0.33213 7.134861,-0.0215 8.191497,-0.0516 8.62918,-0.24605 z M 6.0462005,318.95227 c 0.1737952,-1.26799 0.9310382,-2.10639 2.1553327,-2.38633 0.9832791,-0.22482 4.1012508,-0.18435 4.9378678,0.0641 1.238607,0.36783 1.778695,1.01714 2.02966,2.44013 l 0.09114,0.51676 H 14.555846 13.85149 v -0.46373 c 0,-1.1454 -1.023031,-1.54054 -3.715911,-1.43524 -2.3105825,0.0904 -2.7390416,0.32708 -2.8097773,1.55245 -0.018467,0.31991 -0.071365,0.34634 -0.6932914,0.34643 l -0.6732989,9e-5 z m 10.2857575,-4.11961 v -0.62012 h 3.031684 3.031684 v 0.62012 0.62012 h -3.031684 -3.031684 z m -6.6638407,0.073 c -0.95963,-0.30714 -1.3287802,-0.99928 -1.3287802,-2.49141 0,-1.88004 0.4731484,-2.47106 2.0586869,-2.57154 1.716073,-0.10875 2.404086,0.60632 2.404127,2.49868 2.8e-5,1.34608 -0.257319,2.03146 -0.884564,2.35583 -0.528939,0.27352 -1.705488,0.38255 -2.2494697,0.20844 z m 1.8597507,-2.41292 c 0.0012,-1.28915 -0.124456,-1.44976 -1.000165,-1.44976 -0.7521221,0 -0.9310968,0.27048 -0.9481316,1.30772 -0.018851,1.14784 -0.0035,1.32047 0.9973226,1.37878 0.879609,-0.0893 0.915723,-0.28932 0.950974,-1.23674 z m 4.666286,-1.79428 v -0.62012 h 3.100586 3.100586 v 0.62012 0.62013 H 19.29474 16.194154 Z"
        id="path1068" />
    </g>
  </g>
</svg>
