<svg class="initial-row-icon" width="33" height="25" version="1.1" viewBox="0 0 26.458332 20.902084"
  xmlns="http://www.w3.org/2000/svg">
  <g transform="translate(0 -276.1)">
    <g transform="matrix(.22587 0 0 .22587 -1.6963 230.16)">
      <path class="color-icons" fill="#242b49"
        d="m23.628 294.91c-8.5664-0.7549-13.812-4.2092-15.473-10.19-0.96365-3.4698-0.96365-66.423 0-69.893 1.7348-6.2465 6.7504-9.3664 16.452-10.234 8.5758-0.76693 74.215-0.76693 82.791 0 9.7015 0.8676 14.717 3.9876 16.452 10.234 0.96365 3.4698 0.96365 66.423 0 69.893-1.7348 6.2465-6.7504 9.3664-16.452 10.234-7.7847 0.69619-75.775 0.66016-83.77-0.0444zm89.999-7.0202c4.9552-2.201 4.7409-0.47519 4.7409-38.176 0-32.904-0.0392-33.91-1.3888-35.626-2.806-3.5673-3.0987-3.5879-50.977-3.5879-47.878 0-48.171 0.0206-50.977 3.5879-1.3496 1.7158-1.3888 2.7213-1.3888 35.626 0 36.577-0.08595 35.689 3.6527 37.746 2.7208 1.4969 11.948 1.785 53.191 1.6606 35.674-0.10759 40.957-0.25823 43.146-1.2303zm-86.21-18.823v-3.1006h55.811v6.2012h-55.811zm0-18.604v-3.1006h55.811v6.2012h-55.811zm-0.68902-20.671v-3.1006h79.237v6.2012h-79.237z"
        stroke-width=".68902" />
    </g>
  </g>
</svg>
