<svg class="infobar-icon" version="1.0" xmlns="http://www.w3.org/2000/svg"  width="100" height="100" viewBox="0 0 100 100" preserveAspectRatio="xMidYMid meet">
  <g transform="translate(0.000000,100.000000) scale(0.100000,-0.100000)" fill="#000000" stroke="none">
    <path class="color-icons" fill="#242b49" d="M483 889 c-36 -14 -67 -36 -97 -70 -45 -50 -46 -50 -80 -39 -70 23
    -158 -28 -172 -100 -4 -17 -18 -33 -39 -44 -38 -21 -67 -57 -83 -105 -31 -90
    13 -192 103 -232 52 -24 260 -28 268 -5 11 28 -17 36 -123 36 -87 0 -111 3
    -138 20 -50 31 -74 76 -69 133 5 56 30 95 77 119 38 20 50 34 50 65 0 26 53
    73 83 73 12 0 39 -9 60 -20 l37 -20 25 39 c33 53 62 80 110 102 82 38 181 15
    243 -56 39 -44 51 -71 53 -122 2 -62 8 -73 37 -73 87 0 148 -110 107 -191 -29
    -55 -67 -69 -190 -69 -111 0 -139 -8 -128 -36 4 -11 32 -14 124 -14 99 0 126
    3 158 20 139 70 129 258 -16 322 -38 17 -43 23 -43 51 -1 82 -79 184 -167 217
    -67 25 -123 25 -190 -1z"/>
    <path class="color-icons" fill="#242b49" d="M437 512 c-31 -32 -57 -65 -57 -75 0 -25 33 -21 60 8 13 14 27 25 32
    25 4 0 9 -78 10 -172 3 -146 5 -173 18 -173 13 0 15 27 18 173 1 94 6 172 10
    172 5 0 19 -11 32 -25 28 -29 60 -33 60 -7 0 15 -107 132 -121 132 -2 0 -30
    -26 -62 -58z"/>
  </g>
</svg>
