<?xml version="1.0" encoding="UTF-8"?>
<svg width="150px" height="150px" viewBox="0 0 150 150" version="1.1" xmlns="http://www.w3.org/2000/svg" xmlns:xlink="http://www.w3.org/1999/xlink">
    <title>Icons/32/Info</title>
    <g id="OCR" stroke="none" stroke-width="1" fill="none" fill-rule="evenodd">
        <g id="lg_OCR-12" transform="translate(-1120.000000, -58.000000)" fill="#242b49">
            <g id="Group-4" transform="translate(345.000000, 33.000000)">
                <g id="Group-2" transform="translate(650.000000, 0.000000)">
                    <g id="Icons/32/Info" transform="translate(100.000000, 0.000000)">
                        <path d="M100,25 C141.421356,25 175,58.5786438 175,100 C175,141.421356 141.421356,175 100,175 C58.5786438,175 25,141.421356 25,100 C25,58.5786438 58.5786438,25 100,25 Z M100,32.1428571 C62.5235348,32.1428571 32.1428571,62.5235348 32.1428571,100 C32.1428571,137.476465 62.5235348,167.857143 100,167.857143 C137.476465,167.857143 167.857143,137.476465 167.857143,100 C167.857143,62.5235348 137.476465,32.1428571 100,32.1428571 Z M105,82.05 C104.7,89.35 104.6,93.85 104.6,98.25 L104.6,98.25 L104.6,117.45 C104.6,119.15 104.8,122.95 105,125.35 L105,125.35 L113.7,126.45 L113.7,131.25 L87.3,131.25 L87.3,126.45 L95.9,125.35 C96.2,122.75 96.4,119.45 96.4,117.45 L96.4,117.45 L96.3990919,99.1747053 C96.3883126,93.6578159 96.2783784,91.0986486 95.9,88.45 L95.9,88.45 L87.9,88.05 L87.9,83.25 Z M104.3,62.55 L104.3,73.25 L95.9,73.25 L95.9,62.55 L104.3,62.55 Z" id="Combined-Shape"></path>
                    </g>
                </g>
            </g>
        </g>
    </g>
</svg>
