<?xml version="1.0" encoding="UTF-8"?>
<svg width="164px" height="107px" viewBox="0 0 164 107" version="1.1" xmlns="http://www.w3.org/2000/svg" xmlns:xlink="http://www.w3.org/1999/xlink">
    <title>Icons/32/Card</title>
    <g id="OCR" stroke="none" stroke-width="1" fill="none" fill-rule="evenodd">
        <g id="lg_OCR-2" transform="translate(-70.000000, -312.000000)" fill="#242b49">
            <g id="Icons/32/Card" transform="translate(52.000000, 269.000000)">
                <path d="M115.625,43.75 C129.720076,43.75 141.393447,54.1185516 143.433927,67.6444693 L168.910365,59.1525059 C173.822333,57.515183 179.131583,60.1698079 180.768906,65.0817765 C181.087551,66.0377121 181.25,67.0387671 181.25,68.0464118 L181.25,68.0464118 L181.25,125.703588 C181.25,130.881258 177.05267,135.078588 171.875,135.078588 C170.867355,135.078588 169.8663,134.916139 168.910365,134.597494 L168.910365,134.597494 L143.433927,126.105531 C141.393447,139.631448 129.720076,150 115.625,150 L115.625,150 L46.875,150 C31.3419914,150 18.75,137.408009 18.75,121.875 L18.75,121.875 L18.75,71.875 C18.75,56.3419914 31.3419914,43.75 46.875,43.75 L46.875,43.75 Z M115.625,50 L46.875,50 C34.7937711,50 25,59.7937711 25,71.875 L25,71.875 L25,121.875 C25,133.956229 34.7937711,143.75 46.875,143.75 L46.875,143.75 L115.625,143.75 C127.706229,143.75 137.5,133.956229 137.5,121.875 L137.5,121.875 L137.5,71.875 C137.5,59.7937711 127.706229,50 115.625,50 L115.625,50 Z M109.375,112.5 C114.55267,112.5 118.75,116.69733 118.75,121.875 C118.75,127.05267 114.55267,131.25 109.375,131.25 C104.19733,131.25 100,127.05267 100,121.875 C100,116.69733 104.19733,112.5 109.375,112.5 Z M84.375,112.5 C89.5526695,112.5 93.75,116.69733 93.75,121.875 C93.75,127.05267 89.5526695,131.25 84.375,131.25 C79.1973305,131.25 75,127.05267 75,121.875 C75,116.69733 79.1973305,112.5 84.375,112.5 Z M174.614239,66.5412245 C173.902218,65.2419006 172.342186,64.5966438 170.886788,65.0817765 L170.886788,65.0817765 L143.75,74.125 L143.75,119.61875 L171.128391,128.73809 L171.37443,128.788237 L171.875,128.828588 C173.60089,128.828588 175,127.429478 175,125.703588 L175,125.703588 L175,68.0464118 C175,67.7105302 174.94585,67.3768452 174.839635,67.0582 L174.839635,67.0582 Z M109.375,118.75 C107.64911,118.75 106.25,120.14911 106.25,121.875 C106.25,123.60089 107.64911,125 109.375,125 C111.10089,125 112.5,123.60089 112.5,121.875 C112.5,120.14911 111.10089,118.75 109.375,118.75 Z M84.375,118.75 C82.6491102,118.75 81.25,120.14911 81.25,121.875 C81.25,123.60089 82.6491102,125 84.375,125 C86.1008898,125 87.5,123.60089 87.5,121.875 C87.5,120.14911 86.1008898,118.75 84.375,118.75 Z M115.625,100 C117.35089,100 118.75,101.39911 118.75,103.125 C118.75,104.659124 117.64453,105.935052 116.186723,106.199652 L115.625,106.25 L78.125,106.25 C76.3991102,106.25 75,104.85089 75,103.125 C75,101.590876 76.1054698,100.314948 77.5632773,100.050348 L78.125,100 L115.625,100 Z" id="Combined-Shape"></path>
            </g>
        </g>
    </g>
</svg>
