<svg class="initial-row-icon" width="25" height="25" version="1.1" viewBox="0 0 198.4375 198.43751"
  xmlns="http://www.w3.org/2000/svg">
  <g transform="translate(0 -98.562)">
    <g transform="translate(-2.2614)">
      <path class="color-icons" fill="#242b49"
        d="m6959.4-876.02c-0.01-0.0224 0-0.10497 0.01-0.1835 0.055-0.41233 0.2481-0.61003 0.6903-0.70634 0.1475-0.0321 0.2121-0.0353 0.7161-0.0353s0.5686 3e-3 0.7161 0.0353c0.4422 0.0963 0.6354 0.29401 0.6903 0.70634 0.025 0.1861 0.015 0.22428-0.055 0.22399-0.1212-5.2e-4 -0.1278-8e-3 -0.1278-0.14052 0-0.31824-0.1452-0.5079-0.4516-0.58991-0.28-0.075-1.2477-0.0773-1.5328-4e-3 -0.3153 0.0814-0.463 0.27073-0.463 0.59366 0 0.13279-0.01 0.14-0.1278 0.14052-0.043 1.8e-4 -0.055-8e-3 -0.064-0.0405zm1.1705-1.2568c-0.2373-0.054-0.3477-0.18972-0.386-0.47471-0.024-0.17848-0.01-0.53922 0.027-0.65695 0.076-0.24817 0.2481-0.34815 0.5987-0.34874 0.3241-5.5e-4 0.4937 0.0815 0.5821 0.28153 0.077 0.17541 0.087 0.6578 0.017 0.88347-0.045 0.14485-0.1459 0.25177-0.2801 0.29613-0.1231 0.0407-0.4198 0.0509-0.5589 0.0193zm0.5176-0.19012c0.1427-0.0559 0.1802-0.16772 0.1802-0.53813 0-0.36394-0.032-0.46536-0.172-0.53841-0.058-0.0302-0.3954-0.0414-0.5056-0.0167-0.1016 0.0227-0.1755 0.0929-0.2055 0.19502-0.029 0.0981-0.04 0.44335-0.019 0.59836 0.028 0.20608 0.086 0.284 0.2338 0.31515 0.096 0.0202 0.4234 0.01 0.4878-0.0153z"
        stroke-width=".016536" />
      <g transform="matrix(63.706 0 0 63.706 -4.4334e5 55993)">
        <path class="color-icons" fill="#242b49"
          d="m6959.2-874.34c-0.012-0.0248 0-0.11637 0.011-0.20341 0.06-0.45707 0.2689-0.67622 0.7484-0.78297 0.1599-0.0355 0.23-0.0392 0.7765-0.0392 0.5464 0 0.6165 3e-3 0.7764 0.0392 0.4796 0.10674 0.6891 0.3259 0.7486 0.78297 0.028 0.20629 0.017 0.24861-0.06 0.24829-0.1313-5.9e-4 -0.1385-9e-3 -0.1385-0.15579 0-0.35275-0.1575-0.56299-0.4898-0.6539-0.3036-0.0832-1.353-0.0858-1.662-4e-3 -0.3419 0.0902-0.5019 0.3001-0.5019 0.65807 0 0.1472-0.011 0.15519-0.1388 0.15577-0.046 2e-4 -0.06-9e-3 -0.071-0.0449zm1.2693-1.3932c-0.2574-0.0599-0.3771-0.21029-0.4187-0.5262-0.025-0.19784-0.012-0.59773 0.03-0.72823 0.083-0.27508 0.2691-0.38593 0.6492-0.38657 0.3515-6.1e-4 0.5354 0.0903 0.6313 0.31206 0.084 0.19444 0.095 0.72918 0.019 0.97933-0.048 0.16057-0.1584 0.27908-0.3037 0.32826-0.1334 0.0451-0.4552 0.0564-0.606 0.0214zm0.5613-0.21073c0.1547-0.062 0.1952-0.18593 0.1952-0.59653 0-0.40341-0.034-0.51584-0.1864-0.59681-0.063-0.0335-0.4288-0.0459-0.5482-0.0185-0.1101 0.0251-0.1903 0.10295-0.223 0.21618-0.03 0.10873-0.043 0.49144-0.021 0.66326 0.029 0.22845 0.093 0.31481 0.2536 0.34936 0.1041 0.0224 0.459 0.0109 0.529-0.0169z"
          stroke-width=".018129" />
      </g>
    </g>
  </g>
</svg>
