<!-- <svg xmlns="http://www.w3.org/2000/svg" width="251" height="47" viewBox="0 0 251 47" fill="none"><g clip-path="url(#clip0_138_3103)"><path d="M88.3998 28.1099C88.3998 17.3099 68.1898 25.4699 68.1898 11.7899C68.1898 6.89994 72.1898 2.18994 79.8598 2.18994C87.5298 2.18994 91.4698 6.98994 91.6198 13.1899H88.2098C88.0698 8.52994 84.9998 5.35994 79.8998 5.35994C74.7998 5.35994 71.6998 7.85994 71.6998 11.6499C71.6998 21.5899 91.9998 14.1399 91.9998 27.8699C91.9998 33.7799 86.8698 37.6699 79.2298 37.6699C70.4498 37.6699 66.7498 32.5299 66.5098 26.6699H69.9698C70.3498 31.8099 73.9698 34.4999 79.3298 34.4999C84.8498 34.4999 88.3998 32.2899 88.3998 28.1099Z" fill="#0F054C"></path><path d="M100.21 25.76C100.54 30.71 103.76 34.5 108.9 34.5C110.557 34.5564 112.19 34.0905 113.568 33.1682C114.946 32.2458 116 30.9137 116.58 29.36H120.13C119.423 31.7836 117.932 33.9042 115.891 35.3899C113.849 36.8755 111.373 37.6423 108.85 37.57C101.12 37.57 96.8496 31.62 96.8496 24.75C96.8496 17.88 101.46 12 108.8 12C116.14 12 120.56 17.57 120.56 24.49C120.56 25.01 120.56 25.78 120.56 25.78L100.21 25.76ZM100.3 23H117.15C116.72 18.29 113.6 15.08 108.8 15.08C104 15.08 100.88 18.46 100.3 23Z" fill="#0F054C"></path><path d="M136.299 37.57C128.819 37.57 124.779 31.52 124.779 24.8C124.779 18.08 128.819 12 136.299 12C140.769 12 143.889 14 145.569 17.09V12.56H148.829V47H145.419V32.58C143.789 35.55 140.769 37.57 136.299 37.57ZM136.999 15.06C131.519 15.06 128.259 19.38 128.259 24.8C128.259 30.22 131.519 34.55 136.999 34.55C142.479 34.55 145.589 30.18 145.589 24.8C145.589 19.42 142.449 15.06 136.999 15.06Z" fill="#0F054C"></path><path d="M156.51 27.7301V12.5601H159.92V27.4901C159.92 31.9101 162.27 34.5901 166.64 34.5901C171.01 34.5901 173.36 31.9101 173.36 27.4901V12.5601H176.77V27.7301C176.77 33.1501 173.55 37.5701 166.64 37.5701C159.73 37.5701 156.51 33.1501 156.51 27.7301Z" fill="#0F054C"></path><path d="M186 25.76C186.34 30.71 189.55 34.5 194.69 34.5C196.348 34.558 197.981 34.0927 199.36 33.1701C200.738 32.2476 201.791 30.9145 202.37 29.36H205.92C205.213 31.7836 203.722 33.9042 201.681 35.3899C199.64 36.8755 197.163 37.6423 194.64 37.57C186.91 37.57 182.59 31.62 182.59 24.75C182.59 17.88 187.23 12 194.57 12C201.91 12 206.34 17.57 206.34 24.49C206.34 25.01 206.29 25.78 206.29 25.78L186 25.76ZM186.1 22.98H202.95C202.52 18.27 199.39 15.06 194.59 15.06C189.79 15.06 186.65 18.46 186.08 23L186.1 22.98Z" fill="#0F054C"></path><path d="M215.649 16.3C216.476 14.9195 217.663 13.7901 219.083 13.0326C220.503 12.2751 222.102 11.9182 223.709 12C229.709 12 232.969 16 232.969 21.41V37H229.569V22.07C229.569 17.65 227.499 14.96 223.129 14.96C219.009 14.96 215.789 17.55 215.789 22.45V37H212.379V12.56H215.649V16.3Z" fill="#0F054C"></path><path d="M245 37.0001H241.59V15.4401H237V12.5601H241.65V5.56006H245V12.5601H250V15.4401H245V37.0001Z" fill="#0F054C"></path><path d="M49.7801 16.4C54.3088 16.4 57.9801 12.7287 57.9801 8.2C57.9801 3.67126 54.3088 0 49.7801 0C45.2513 0 41.5801 3.67126 41.5801 8.2C41.5801 12.7287 45.2513 16.4 49.7801 16.4Z" fill="#0F054C"></path><path d="M8.2 16.4C12.7287 16.4 16.4 12.7287 16.4 8.2C16.4 3.67126 12.7287 0 8.2 0C3.67126 0 0 3.67126 0 8.2C0 12.7287 3.67126 16.4 8.2 16.4Z" fill="#0F054C"></path><path d="M8.2 36.25C12.7287 36.25 16.4 32.5787 16.4 28.05C16.4 23.5212 12.7287 19.85 8.2 19.85C3.67126 19.85 0 23.5212 0 28.05C0 32.5787 3.67126 36.25 8.2 36.25Z" fill="#0F054C"></path><path d="M28.9891 36.2501C33.5178 36.2501 37.1891 32.5788 37.1891 28.0501C37.1891 23.5214 33.5178 19.8501 28.9891 19.8501C24.4603 19.8501 20.7891 23.5214 20.7891 28.0501C20.7891 32.5788 24.4603 36.2501 28.9891 36.2501Z" fill="#0F054C"></path><path d="M28.9891 16.4C33.5178 16.4 37.1891 12.7287 37.1891 8.2C37.1891 3.67126 33.5178 0 28.9891 0C24.4603 0 20.7891 3.67126 20.7891 8.2C20.7891 12.7287 24.4603 16.4 28.9891 16.4Z" fill="#43E3A1"></path></g><defs><clipPath id="clip0_138_3103"><rect width="250.01" height="46.98" fill="white"></rect></clipPath></defs></svg> -->
<svg version="1.1" viewBox="0 0 2048 1153" width="666" height="375" xmlns="http://www.w3.org/2000/svg">
<path transform="translate(1287,253)" d="m0 0 7 1 84 28 9 4 1 1 1 42 1 124v41l-5 2-71 14-143 28-32 5-27 4-58 11-80 16-43 8-85 17-39 7-13 2-1 41-4 1-82-13-34-5-3-1-1-2-2-151v-63l2-1 22-3 48-9 203-38 60-11 39-5 246-46zm37 68-22 5-1 1v81l-10-31-9-26-7-19-11 1-17 3-1 4 1 143 1 6 26-5 2-1v-80l13 37 13 39 15-1 12-2 1-1v-24l-1-81-1-49zm-117 23-31 6-2 2-8 53-7 41-7 43-2 19 13-2 15-3 2-1 2-22 20-2 4-1 2 17 1 2 10-1 19-4 1-3-20-100-8-43zm-104 18-27 5-1 1v21l2 133 9-1 57-11 3-1v-29l-34 7-4 1-1-82-1-44zm-67 13-32 6-2 4-9 55-5 48-7 44v9l13-2 13-3 1-1 2-22 27-5 1 14 1 7 3 1 23-5 2-3-10-51-5-40-11-55zm-104 20-24 5-2 1v65l1 69 1 18 25-5 25-4 18-2 1-24-1-4-14 2-21 4h-5l-1-80-1-45zm-66 13-24 5-8 1-2 5-9 57-13 80-2 16 14-2 16-4 2-15v-7l25-2 1 13 1 5 10-1 20-4-1-9-13-66-7-35-6-33-2-4zm-73 12-25 5v59l-10 1-13 3v-58l-10 1-18 4v86l1 69 8-1 18-4 3-2-1-67 15-2 8-2v52l1 15 12-1 15-3 2-2v-53l-1-100z" fill="#FD1311"/>
<path transform="translate(1269,124)" d="m0 0 3 1v162l-2 1-20 3-65 12-36 7-160 30-49 9-40 5-171 32-80 15-1 39-9-2-32-9-28-8-19-5-2-2v-155l4-2 93-18 45-9 41-7 29-4 51-10 169-33 57-11 26-5 38-5 77-15zm-54 48-11 3-8 6-5 10-2 11v36l2 14 3 7 6 5h14l8-4 5-5 2 4h7l1-1v-47l-10 1-12 2-1 1v10l6 1v13l-2 8-6 2-3-2-1-6-1-18v-20l2-13 3-2h6l1 13 7-1 10-4 1-4-3-12-5-6-6-2zm-124 4-12 3-11 7-6 8-4 11-2 16v40l2 20 4 10 8 7 7 2h11l13-4 11-7 5-5 2-11 1-17v-37l-1-21-2-11-4-6-7-4-5-1zm88 5-15 3v45l-7-17-8-25-13 2-4 1v44l1 44 8-1 8-2 1-48 10 33 5 12 8-1 8-2v-87zm-165 10-11 3-9 5-5 7-5 16-1 6v53l3 17 4 11 4 4 5 2h10l12-4 7-5 3-5 2-1v7h10l3-1v-33l-1-33-26 5-5 1v18h9l-1 20-4 8-2 1h-7l-3-5-1-7v-59l3-8 4-2 6 1 2 5 1 11 10-3 13-4 1-5-3-13-5-8-6-4-4-1zm-60 14-26 5-5 41-10 61-2 15v5l17-3 3-1 2-17 13-3 8-1v9l1 7 9-1 12-2 2-1-1-10-15-78-5-25zm-81 16-30 3-2 1 1 116 1 4 10-1 29-7 12-6 6-7 4-9 2-14-1-14-3-7-4-5-5-2 1-3 4-4 4-8 1-5v-17l-3-9-4-4-9-2zm-64 29-17 4-14 84v7l13-2 4-2 1-11 10-3h2l2 11 12-1 5-2-4-24-12-60zm-38 8-15 3-4 9-7 19-2 3-1-28-8 1-6 2v32l1 53 13-1 1-1 1-23 4-12 1-1 4 16 4 18 4 1 13-3 1-2-10-40-3-11 1-7 5-12 5-13v-3zm-68 13-19 4-7 41-5 32-1 15 12-2 4-1 2-10 14-2 1 7 1 1 12-1 4-1-1-10-12-63-2-9zm-45 9-21 4-2 7-5 41-1 2-7-43-2-5-21 3-3 1v41l1 47 11-2 3-1 1-66 7 44 4 19 11-1 2-1 9-59 2-10 1 67 16-3v-85z" fill="#0015EB"/>
<path transform="translate(1412,470)" d="m0 0 10 2 43 13 19 7 2 2v91l-24 5-56 11-36 6-28 4-73 14-50 10-42 8-81 16-46 9-28 4-27 4-66 13-113 22-3-1v-25l1-65 5-2 53-10 31-4 83-16 50-10 163-32 28-4 26-4 128-25 26-5h4z" fill="#FBC40C"/>
<path transform="translate(652,787)" d="m0 0h16l12 3 10 6 5 4 6 11 11-6 12-5 29-8 20-3h22l17 4 19 7 6 4h4l6-5 18-10 9-2h18l10 2 12 6 7 6 4 8 1 4v27l-4 16-8 16-8 14-11 16-8 10-9 10-13 13-9 11-4 5h59l-4 30-1 5-99 1-2 5-6 2-5-4-1-3v-9l4-20 3-10 10-16 8-16 5-13 3-13v-26l-4-16-7-14-8-7-12-6-9-2-17-1-16 2-13 4-14 8-16 12-10 9-6 9-6 13 12-12 11-8 13-9 14-8 13-4 15-2h12l15 3 10 6 7 8 5 14v22l-4 16-6 14-8 14-9 15-8 13-6 16-1 5v13l1 2v6l-3 3-6 1-4-4-3-10 1-12 4-13 8-16 6-11 8-10 7-11 4-8 6-25v-17l-5-13-5-4-12-4h-23l-15 4-16 9-15 9-11 10-13 17-8 12-7 10h-3l-1-8-11 13-8 8-8 7-13 13 4 1 54 1-2 16-3 19h-101l1-12 3-15 7-8 13-15 5-8 5-4 8-10 14-18 10-15 10-17 5-10 4-15 1-13-3-7-9-2-8 3-5 8-5 19-2 7-29-7-4-2 4-17 3-12 6-10 5-5 8-5 12-6zm112 12-19 3-20 8-18 10-5 4-1 12 4-1 9-7 15-9 12-6 9-3 10-2 20-1 14 2 12 5 9 5 10 9 3 1 4-9-1-3-8-6-11-7-12-4-7-1zm112 17-7 3-5 6-4 19-1 8-9-1-16-3 3 14 1 7v14l-3 21-4 15-4 10-8 13h3l11-11 7-8 7-7 10-14 13-21 12-21 5-14 2-10v-12l-4-6-6-2z" fill="#030204"/>
<path transform="translate(874,787)" d="m0 0h18l10 2 12 6 7 6 4 8 1 4v27l-4 16-8 16-8 14-11 16-8 10-9 10-13 13-9 11-4 5h59l-4 30-1 5-99 1-2 5-6 2-5-4-1-3v-9l4-20 3-10 10-16 8-16 5-13 3-13v-26l-4-16-7-14-8-7-12-6-9-2-17-1-16 2-13 4-14 8-16 12-10 9-2 1 1-9 2-9 5-3 11-8 21-12 12-4 10-2 20-1 14 2 12 5 9 5 10 9 3 2 3-9 7-13 7-7 20-11zm2 29-7 3-5 6-4 19-1 8-9-1-16-3 3 14 1 7v14l-3 21-4 15-4 10-8 13h3l11-11 7-8 7-7 10-14 13-21 12-21 5-14 2-10v-12l-4-6-6-2z" fill="#030203"/>
<path transform="translate(953,791)" d="m0 0h93l-2 6-7 18-2 6-53 1-5 25-2 14 12-5 11-1 12 2 12 6 6 9 3 13v27l-3 19-5 19-6 14-8 10-10 8-13 6-12 2h-12l-12-2-10-4-10-9-3-6-1-6v-36l24-5 10-2h4l-1 14v14l3 7 8 2 8-3 4-8 3-12 2-21v-26l-2-4h-10l-6 4-3 4-11-2-22-5-3-2 2-12 8-37 8-38z" fill="#030204"/>
<path transform="translate(766,832)" d="m0 0h12l15 3 10 6 7 8 5 14v22l-4 16-6 14-8 14-9 15-8 13-6 16-1 5v13l1 2v6l-3 3-6 1-4-4-3-10 1-12 4-13 8-16 6-11 8-10 7-11 4-8 6-25v-17l-5-13-5-4-12-4h-23l-15 4-16 9-15 9-11 10-13 17-8 12-7 10h-3l-1-10 8-15 10-15 8-7 5-5 16-12 14-9 12-6 15-4z" fill="#FBC60C"/>
<path transform="translate(756,854)" d="m0 0h11l10 3 9 6 5 6 3 10v10l-3 12-7 14-11 13-8 10-6 10-4 10-2 8-1 11v23l-4 5-6-2-5-10v-16l2-15 5-15 7-12 11-13 6-7 7-12 4-11v-14l-4-8-6-4-6-1h-9l-12 3-11 7-15 14-10 11-9 13-12 19-9 13-4-1v-8l4-11 7-11 12-18 11-14 11-11 10-7 16-7z" fill="#FC1911"/>
<path transform="translate(772,806)" d="m0 0 17 1 13 4 13 7 10 9 3 3-4 15 10 3 3 8 2 13v14l-3 21-4 15-4 10-8 13-2 5-9 10-3 8-2 12v8l3 2-2 5-6 2-5-4-1-3v-9l4-20 3-10 10-16 8-16 5-13 3-13v-26l-4-16-7-14-8-7-12-6-9-2-17-1-16 2-13 4-14 8-16 12-10 9-2 1 1-9 2-9 5-3 11-8 21-12 12-4 10-2z" fill="#FBC60C"/>
<path transform="translate(783,609)" d="m0 0h9l1 40-4 1-82-13-28-4-2-2 9-2 12-5 23-4 40-8z" fill="#B00E0F"/>
<path transform="translate(747,882)" d="m0 0h10l6 4 4 7v7l-4 9-8 11-13 13-5 8-5 19-2 13-1 23-5 5h-5l-3-4v-22l2-15 5-15 13-22 10-11 6-9 2-8h-6l-11 6-14 15-9 11-9 16-8 15-4 5h-4l-1-6 3-12 8-16 12-17 9-10 10-10 11-8z" fill="#FC1911"/>
<path transform="translate(1287,253)" d="m0 0 7 1 81 27 3 3-4 2-14 4-38 7-26 4h-8l-1-28z" fill="#B00E0F"/>
<path transform="translate(772,806)" d="m0 0 17 1 13 4 13 7 10 9 3 3-4 15 10 3 1 4-3 1-8-3-3-5-6-11-8-7-12-6-9-2-17-1-16 2-13 4-14 8-16 12-10 9-2 1 1-9 2-9 5-3 11-8 21-12 12-4 10-2z" fill="#FAC50C"/>
<path transform="translate(1412,470)" d="m0 0 10 2 43 13 12 5 1 3-3 3-29 6-17 3-18 2z" fill="#E3B413"/>
<path transform="translate(1086,197)" d="m0 0h8l3 5 1 8 1 46-1 18-3 6-3 2h-7l-3-4-2-12v-59l3-7z" fill="#0116EB"/>
<path transform="translate(773,789)" d="m0 0h22l17 4 19 7 6 4 2 3-6 11-5-2-12-9-12-5-11-2h-29l-19 3-20 8-18 10-5 3-1-12 13-8 13-5 26-7z" fill="#0015EB"/>
<path transform="translate(1235,831)" d="m0 0h14l1 25 7-23 1-2h16l-3 22-4 20-1 1h-9l1-12 2-16-9 27-1 1h-5v-31l-6 29-1 2h-9l-1-3 5-28z" fill="#06060E"/>
<path transform="translate(770,769)" d="m0 0h26l15 3 7 3 4 4v6l-4 3-22-6-10-1h-12l-18 2-18 5-22 10-5-1-1-4 5-5 16-9 10-4 16-4z" fill="#0116EB"/>
<path transform="translate(1040,603)" d="m0 0h6v40l-7 1-1-5-1-17h-2l-1 13-1 10-6 2-3-9-3-18-1 28-7 1-1-5v-36l1-1 11-1 2 3 3 16 3-18 3-3z" fill="#020101"/>
<path transform="translate(1329,948)" d="m0 0h10l2 7 2 13 4-19 1-1h9l-1 12-5 31-1 1h-9l-3-7v-13h-2l-3 16-2 4h-8l-1-5z" fill="#090811"/>
<path transform="translate(1263,889)" d="m0 0h8l2 1 2 9 1 11 4-19 1-2h10l-1 11-4 23-3 9h-9l-2-5-1-5v-9h-2l-1 9-3 10h-9l1-13 5-29z" fill="#090911"/>
<path transform="translate(1326,889)" d="m0 0h9l2 6 2 15 1-1 3-18 1-2h9l1 3-6 35-2 5-6 1-4-2-2-7-2-10-3 15-1 3h-10l6-37z" fill="#090911"/>
<path transform="translate(1383,831)" d="m0 0h10l1 4 2 15 1 1 4-20h10l-2 16-5 26-1 1h-7l-3-3-3-14-2 6-3 10-1 1h-8l1-12 5-30z" fill="#06060D"/>
<path transform="translate(1216,946)" d="m0 0 8 1 5 4 1 7-2 17-4 13-3 3-3 1h-16l-4-4 1-17 4-16 4-6zm-2 8-3 9-3 18v5l5 1 2-1 4-22v-9z" fill="#0A0A13"/>
<path transform="translate(1258,772)" d="m0 0h16l7 2 2 2v11l-3 6-2 2 2 1-1 14-2 6h-8l-1-1 1-15h-6l-3 15-2 1h-7l1-16 5-27zm8 8-2 8v5h7l2-5v-8z" fill="#090912"/>
<path transform="translate(1150,888)" d="m0 0h9l5 3 2 3v16l-3 13-4 6-6 4h-12l-6-5v-9l2-14 3-10 5-5zm1 8-3 8-3 18v5l4 1 3-3 3-13 1-16z" fill="#080810"/>
<path transform="translate(1161,830)" d="m0 0 9 1-3 21-3 13-4 6-4 3-3 1h-9l-5-2-3-7 3-24 2-10 1-1h10l-1 11-4 25h6l5-30 2-6z" fill="#0B0A12"/>
<path transform="translate(1209,830)" d="m0 0h13l5 5 1 8-2 14-4 11-4 5-6 2h-7l-7-3-2-3v-9l4-19 3-6zm4 7-3 5-4 21v4l4 1 4-4 3-16 1-10z" fill="#080810"/>
<path transform="translate(1112,772)" d="m0 0h14l7 2 2 2v10l-4 7 2 4-1 9-4 7-4 2-7 1h-11l-1-4 6-36zm7 8-1 4v7h5l2-4v-7zm-2 18-1 3v7l5-1 2-4-1-5z" fill="#FCC70C"/>
<path transform="translate(1237,948)" d="m0 0h18l4 2 2 3v7l-3 7-2 4 2 2-2 18-1 1h-7l-1-1v-10l1-5h-4l-4 15-1 1h-8l-1-2 4-24zm9 7-1 1-1 12h5l2-7v-5z" fill="#05050E"/>
<path transform="translate(1117,947)" d="m0 0h11l5 4v15l-3 16-3 7-5 3h-13l-4-3v-14l3-16 4-8zm2 7-2 7-3 20v5l4 1 2-3 3-21v-8z" fill="#FCC70C"/>
<path transform="translate(1210,569)" d="m0 0h10l3 6 1 5v22l-3 6-6 3h-10l-4-6v-25l2-6 4-4z" fill="#020101"/>
<path transform="translate(1138,584)" d="m0 0 7 1 2 4v9l-1 7 2 2v9l-3 6-11 4-8 1-1-2v-38l5-2z" fill="#020101"/>
<path transform="translate(1298,948)" d="m0 0h10l-3 21-2 12v5h5l4-36 1-2h10l-3 21-3 16-4 6-3 1h-13l-4-3-1-7 4-28z" fill="#070710"/>
<path transform="translate(1233,889)" d="m0 0h13l7 3 2 2v9l-3 7-2 2 2 2v8l-2 9-1 1h-7l2-14h-6l-3 13-1 1h-10l5-30 3-12zm7 8-2 12 1 1h6l1-4v-9z" fill="#060610"/>
<path transform="translate(1360,830)" d="m0 0h11l4 3v20l-2 12-3 6-4 3-4 1h-8l-6-3-2-5 2-18 4-13 5-5zm3 7-3 3-4 23 1 4 3 1 4-4 4-21v-5z" fill="#060610"/>
<path transform="translate(1119,888)" d="m0 0h7l5 3 2 2v9l-2 1h-8l-2-7h-2l-3 20-1 11h4v-17l12-1 1 3-2 14-3 7-7-1-1 1h-9l-5-5v-11l3-16 4-9z" fill="#FCC70C"/>
<path transform="translate(1148,947)" d="m0 0 14 1 5 5 1 6-3 10-5 5-13 3-3 14-1 1h-8l-1-5 4-24 2-14 1-1zm3 8-2 2-1 11 4 1 5-5v-8z" fill="#0B0B12"/>
<path transform="translate(898,628)" d="m0 0h13l2 2 1 5v8l-2 3 1 4 1 19-7 1-1-1-1-14-6-1v16l-1 1h-6l-1-9v-32z" fill="#020101"/>
<path transform="translate(1448,525)" d="m0 0 7 1 3 4 1 8v17l-2 7-6 5-3 1h-7l-3-5v-30l2-5z" fill="#020101"/>
<path transform="translate(1286,831)" d="m0 0h13l1 18v25h-9l-1-6h-7l-4 6h-8l1-6 9-23zm4 15-4 10-1 7h5l1-1v-16z" fill="#04040C"/>
<path transform="translate(1457,947)" d="m0 0h12l5 4 1 2v6l-3 3h-6l-2-6v-2h-5v7l7 8 5 7 1 7-3 6-5 3h-16l-3-3v-9l9-1 1 7h5v-7l-7-8-4-6-1-6 3-7 4-4z" fill="#070712"/>
<path transform="translate(1428,530)" d="m0 0 5 1 1 39-9 1-6-17-1 19-7 1-1-1v-39l7-1 8 15v-16z" fill="#020101"/>
<path transform="translate(1191,389)" d="m0 0 2 3 10 64-1 2-12 2h-7l1-19 5-39 1-12z" fill="#FC1A11"/>
<path transform="translate(1143,772)" d="m0 0h25l-1 7-1 1h-15l-1 10h10v6l-2 2h-10l-1 10h14l-1 7-1 1h-23l-1-2 7-41z" fill="#0C0C16"/>
<path transform="translate(775,751)" d="m0 0h17l11 2 5 5-3 6-10-1-15-1-17 2-20 6-7 1-1-1 1-7 14-7 16-4z" fill="#0318EB"/>
<path transform="translate(1171,889)" d="m0 0h10v26l5-20 3-6h9l-3 11-8 23-4 8-6 2-5-1-1-17z" fill="#070712"/>
<path transform="translate(1174,948)" d="m0 0h18l5 5v11l-3 7-6 4-9 1-1 14-2 2h-8l-1-3 5-32 1-8zm8 7-2 13 3 1 4-4v-9z" fill="#090911"/>
<path transform="translate(1202,889)" d="m0 0h25l-1 7-1 1h-14l-1 9 10 1-1 7-7 1h-3l-2 7v4h13v5l-1 1h-25l6-34z" fill="#090911"/>
<path transform="translate(1119,830)" d="m0 0 12 1 1 2 1 40-1 1h-9l-1-6h-5l-2 5-1 1h-9l3-9 9-26zm2 15-2 6-1 12 5-1-1-17z" fill="#FCC70C"/>
<path transform="translate(1020,430)" d="m0 0 4 2 4 20 5 30v6l-14 3h-6v-8l5-38z" fill="#FC1911"/>
<path transform="translate(852,465)" d="m0 0h3l1 2 6 43v12l-16 3h-3l1-12 6-46z" fill="#FC1911"/>
<path transform="translate(1390,889)" d="m0 0h24l-1 8h-15l-1 10h10v6l-2 2h-10l-1 12 13-1 1 3-1 3h-25l6-36z" fill="#07070E"/>
<path transform="translate(1231,772)" d="m0 0h21l-1 7-1 1h-11l-1 9 9 1-1 7-1 1-9 1-2 9h13v6l-2 2h-21l-1-3 7-40z" fill="#0C0C16"/>
<path transform="translate(1265,558)" d="m0 0h9l3 5v6l-3 2-5-1-1-4h-3l-1 2v24l1 4 4-1v-9l-2-4 1-4 9-1 1 2v20l-12 4h-7l-3-4-1-4v-27l3-6 4-3z" fill="#020101"/>
<path transform="translate(1246,563)" d="m0 0h3l1 2 1 40-6 1-4-9-3-8-1 18h-7l-1-1v-39l1-1h7l7 20 1-22z" fill="#020101"/>
<path transform="translate(1304,889)" d="m0 0h9l1 3v40l-3 1-4-2-1-3h-7l-2 4h-9l1-5 6-16 7-20zm3 16-6 15v3h6l1-8v-10z" fill="#0C0C16"/>
<path transform="translate(1366,889)" d="m0 0h12l5 5v6l-2 3h-6l-2-6h-3l-4 18-1 13 5-1 2-5 2-2h4v6l-5 6-2 1h-11l-5-4-1-2 1-15 4-16 5-6z" fill="#070713"/>
<path transform="translate(1433,947)" d="m0 0 14 1-1 6-1 1-11 1-2 9h7l1 4-2 4-7 1-1 4v7h9l1 1v5l-1 1h-21l1-11 5-32 1-1z" fill="#080813"/>
<path transform="translate(1091,593)" d="m0 0h6l-3 10-1 5 5 25-7 1-4-13v-3h-2l-2 18-7 1-1-6v-33l4-3 3 1 2 11 5-12z" fill="#020101"/>
<path transform="translate(877,632)" d="m0 0h3l5 24 2 10v6h-7l-1-1h-7l-1 3-7 1 1-11 5-30z" fill="#020101"/>
<path transform="translate(1162,579)" d="m0 0h5l7 35v4l-7 1-1-5-7 1-2 6-1 1h-5l1-13 4-26 3-3z" fill="#020101"/>
<path transform="translate(853,637)" d="m0 0h8l2 2 1 13-1 7-5 4-7 1v14l-7 2-1-1v-39l3-2z" fill="#020101"/>
<path transform="translate(1378,947)" d="m0 0h25l1 3-2 5-1 1h-7l-5 33-2 3h-8l-1-1 1-11 3-18v-6l-7-1 1-7z" fill="#13131C"/>
<path transform="translate(1198,772)" d="m0 0h28l-1 7-1 1h-8l-1 9-4 23-2 4h-8l-1-1 1-10 4-25h-8v-7z" fill="#08070E"/>
<path transform="translate(928,622)" d="m0 0 4 1 7 37v4l-7 1-2-4h-4l-1 6-7 1 1-14 4-27z" fill="#090101"/>
<path transform="translate(987,611)" d="m0 0h4l5 26 1 16h-5l-1-4h-7l-1 7h-6l1-15 4-25 2-4z" fill="#020101"/>
<path transform="translate(1310,551)" d="m0 0 4 2 1 2v16l-5 6-6 1-1 18h-7v-42l4-2z" fill="#020101"/>
<path transform="translate(1265,948)" d="m0 0h29l-2 7-4 1h-4l-6 35-1 1h-9l1-14 3-20 1-2h-8l-1-3z" fill="#0A0A13"/>
<path transform="translate(1112,589)" d="m0 0 5 1 4 33v5l-4 1-1-5-8 1-1 6-6 1v-11l5-27 2-4z" fill="#020101"/>
<path transform="translate(1184,574)" d="m0 0h8l3 4 1 5-2 3-5 1-2-2-1-4-2-1v30l3-1v-7l-1-7 5-2h5l1 11v9l-8 2-9 1-3-5-1-5v-22l3-6z" fill="#020101"/>
<path transform="translate(863,287)" d="m0 0h16l3 5 1 10-2 10-4 5-9 3h-5z" fill="#0116EB"/>
<path transform="translate(961,615)" d="m0 0h8l4 5v6l-6 2-3-6-4 1 1 7 10 9 3 6v6l-4 6-7 3h-6l-4-4-1-7 4-2 4 1 1 5 4-1-1-7-10-10-2-4v-8l3-5z" fill="#020101"/>
<path transform="translate(1061,598)" d="m0 0 3 1 4 15 4 24-8 1-1-4h-6l-3 7-3-1 1-14 2-21 2-6z" fill="#020101"/>
<path transform="translate(772,806)" d="m0 0 17 1 13 4 13 7 10 9 3 3-4 15 10 3 1 4-3 1-8-3-2-2 1-17-4-5-7-4-7-3h-4v-2l-6 1-11-2-17-1-9-1-3-3 6-2v-2z" fill="#E4B414"/>
<path transform="translate(1380,539)" d="m0 0h6l5 4 1 8-3 7-5 4-7 1v18h-5l-1-7v-32l3-2z" fill="#020101"/>
<path transform="translate(1312,830)" d="m0 0h19l-1 8-1 1h-8l-1 9-4 23-1 3h-7l2-25 1-9-6-1 1-8z" fill="#080916"/>
<path transform="translate(1176,830)" d="m0 0h23l1 3-3 6h-6l-2 7-5 26-1 2h-7l1-11 3-17v-7h-6l-1-4 1-4z" fill="#0F1020"/>
<path transform="translate(1171,772)" d="m0 0h24l-1 8-8 1-3 23-2 12-9-1 3-22 3-13h-8v-6z" fill="#09090F"/>
<path transform="translate(864,240)" d="m0 0h11l4 3 1 3v15l-4 7-8 4h-5l-1-29z" fill="#0419EB"/>
<path transform="translate(1364,948)" d="m0 0h10l-1 11-5 31-1 2h-9l-1-5 6-37z" fill="#0B0B16"/>
<path transform="translate(1408,948)" d="m0 0h10l-1 12-5 31-1 1h-9l-1-4z" fill="#090915"/>
<path transform="translate(942,240)" d="m0 0h1l8 49v2l-13 3h-3l1-14 5-38z" fill="#0217EB"/>
<path transform="translate(1336,831)" d="m0 0h10l-2 14-5 27-1 2h-9l-1-2 7-40z" fill="#05050C"/>
<path transform="translate(1337,545)" d="m0 0h5l1 34h10l1 6-5 2-14 2-1-21v-22z" fill="#020101"/>
<path transform="translate(1184,580)" d="m0 0 3 1 2 5 5-1 1-5 6 1 1 26h-2l-2 7-5 2h-4v-2l2-1h6l-1-9v-11l-9 2 1 14-4 1-1-3v-25z" fill="#E6A413"/>
<path transform="translate(1325,547)" d="m0 0h3v43l-1 1h-6l-1-4v-38z" fill="#020101"/>
<path transform="translate(1401,535)" d="m0 0h3l1 26v14l-1 1h-7l-1-1v-38z" fill="#020101"/>
<path transform="translate(1361,542)" d="m0 0 4 1 1 40-2 1h-6l-1-10v-30z" fill="#020101"/>
<path transform="translate(707,954)" d="m0 0h6l-1 12-2 19-5 3-4-2-2-5v-7l4-13z" fill="#FC1D11"/>
<path transform="translate(890,630)" d="m0 0h1l1 41 6-1 1-16h6l1 1 1 14 3 2h-6l-3-1-2 2h-8l-2-1v2l-10 1v-2h8l-3-16v-5l2 2 1-1 2-11z" fill="#E6A113"/>
<path transform="translate(1333,546)" d="m0 0h1l1 22v21l2 1-10 1 1-44z" fill="#E6A013"/>
<path transform="translate(1245,562)" d="m0 0h5l2 3h4v30l1 6h-5v5l-3-1h2l-1-2-1-40-3 1-1 23-2-1-4-12 1-4 1-2h2z" fill="#E3AD13"/>
<path transform="translate(1046,603)" d="m0 0h1l1 9 2-4 4-5v16l-2 17v5h2l2-6 1-1h6l2 6h-2v-4l-5 1-2 5-6 2h-5z" fill="#E4A813"/>
<path transform="translate(694,297)" d="m0 0 2 3 3 16 2 13v7l-11 1 1-16z" fill="#051AEB"/>
<path transform="translate(1429,529)" d="m0 0h9l1 4v30l2 4h9l-1 2h-12l-3 1-1-2-1-37z" fill="#E5A213"/>
<path transform="translate(1158,579)" d="m0 0 3 1-4 1-6 41 8-2-2 3-7 1-5-2 2-6v-9l-2-2 2-16 2 3 1 2 2-5h2l1-7z" fill="#E5A213"/>
<path transform="translate(1175,585)" d="m0 0h1l1 21 3 9h8l-2 3-11 1-3 1h-8l-4-1v-2h-2l1-3h7l1 5 7-1-5-24v-6l2 4 4-2z" fill="#E5A413"/>
<path transform="translate(800,279)" d="m0 0 2 2 5 33-5 2h-5v-10l2-22z" fill="#091DEB"/>
<path transform="translate(913,632)" d="m0 0 3 4 1 3 4 2-1 13-2 14 2 1h-6l-1-3-1-16-1-4 2-3z" fill="#E79E13"/>
<path transform="translate(1210,576)" d="m0 0h5l1 6v23l-1 2-5-1-1-2v-27z" fill="#E4AA13"/>
<path transform="translate(1445,532)" d="m0 0h5l1 4v22l-2 3h-4l-1-3v-25z" fill="#E4AB13"/>
<path transform="translate(1228,567)" d="m0 0h1l1 41h5v1h-6l-2-6-3-1-1-22-1-7h3v-2h2z" fill="#E3AF13"/>
<path transform="translate(1074,597)" d="m0 0h1l1 40h5v1l-11 2-4-1 5-2-3-17v-6l2 2 3-5z" fill="#E4AC13"/>
<path transform="translate(1096,595)" d="m0 0 2 1-2 8v10l2 1 2-6 2 1 1 4-2 18 2 1-2 1h-6l3-1-4-14-2-13z" fill="#E79C13"/>
<path transform="translate(979,628)" d="m0 0h1l-1 13-2 15h6l1-2v3l-2 1-10 1-9 3-7-1v-1l11-2 5-5 1-2-1-11h5z" fill="#E69D13"/>
<path transform="translate(1124,588)" d="m0 0h1v37l-4 4-4-31v-8l2 2 2 13 2 2z" fill="#E89513"/>
<path transform="translate(868,639)" d="m0 0h1l-1 13-3 17-2-4-4-1-6 2-1 13-4 2h-5l3-2 4-1 1-14 9-3 2-2 2-14 3-3z" fill="#E69F13"/>
<path transform="translate(1370,542)" d="m0 0h1v40l3 1h-8l-1-5 1-3 1-11 1-2v-15h2z" fill="#E3B213"/>
<path transform="translate(1395,536)" d="m0 0h1v41l-2-1v-18l-3-3v-9l-3-5-2-1h-9l2-2h8l4 2h3z" fill="#E4AB13"/>
<path transform="translate(899,654)" d="m0 0h6l1 1 1 14 3 2h-6l-3-1-2 2-3-1 2-1z" fill="#E4A913"/>
<path transform="translate(674,895)" d="m0 0 1 3 4 4-1 5-6 9h-3l-1-10z" fill="#E8AF12"/>
<path transform="translate(1020,618)" d="m0 0 2 2 4 23 1 3 2 2h-9z" fill="#E89113"/>
<path transform="translate(1263,570)" d="m0 0h1v8l3 1 3 7v9l-2 2-4-1-1-4z" fill="#E5AA13"/>
<path transform="translate(1035,622)" d="m0 0h2l1 2 1 20h5v1l-8 1-3-1v-10z" fill="#E89513"/>
<path transform="translate(1271,574)" d="m0 0 7 1 1 1 1 21-1 4-4 2-10 2-7-1v-3l1 1h7l10-3h2l-1-22-10 2v-2h3z" fill="#E4A813"/>
<path transform="translate(818,943)" d="m0 0 2 1-11 13-3 8-2 12v8l3 2-2 3-4-3 1-19 4-12 7-7 1-2h2z" fill="#E79E17"/>
<path transform="translate(899,635)" d="m0 0h6l1 1v10l-4 2-4-1v-11z" fill="#E79713"/>
<path transform="translate(1418,553)" d="m0 0 3 3 4 12v3h7v1h-12l-2 1z" fill="#E4AB13"/>
<path transform="translate(1085,618)" d="m0 0h2l4 16 3 1h-8l-1-1-2 2v-13z" fill="#E6A113"/>
<path transform="translate(1377,544)" d="m0 0h5l2 2-1 9-1 1h-6v-11z" fill="#E5A313"/>
<path transform="translate(1237,588)" d="m0 0 3 3 5 14 3 2h-6l-3-2v2h-2z" fill="#E69F13"/>
<path transform="translate(1303,559)" d="m0 0h6l1 1v9l-4 3-3-1z" fill="#E3AE13"/>
<path transform="translate(1389,557)" d="m0 0v3l-3 4h-3l-4 10-1 7-2-3v-13l1-2 9-3z" fill="#E88B13"/>
<path transform="translate(962,621)" d="m0 0 4 2 2 4 5-1-1 2-6 1 1 6-4-2-4-5v-5z" fill="#E79713"/>
<path transform="translate(851,645)" d="m0 0h6l1 1v8l-3 3h-4z" fill="#E4AD13"/>
<path transform="translate(1135,607)" d="m0 0 5 1v8l-2 2h-5l-1-1v-8z" fill="#E79B13"/>
<path transform="translate(1244,565)" d="m0 0h1v22l-2-1-4-12 1-4 1-2h2z" fill="#E98F13"/>
<path transform="translate(1319,549)" d="m0 0h1v40h-1v-19l-4 1 1-12 1 2h2z" fill="#E3B414"/>
<path transform="translate(1133,592)" d="m0 0h5l1 1v9l-5 1-2-1v-8z" fill="#E5A313"/>
<path transform="translate(1058,612)" d="m0 0h2l2 11v6l-5 1v-12z" fill="#E98813"/>
<path transform="translate(1029,607)" d="m0 0h3l-1 14-1 5-2-1-2-11v-6z" fill="#E69E13"/>
<path transform="translate(823,839)" d="m0 0h2l-1 6 10 3 1 4-3 1-8-3-2-2z" fill="#E79E13"/>
<path transform="translate(987,626)" d="m0 0h2l1 4v13h-5z" fill="#E98C13"/>
<path transform="translate(874,652)" d="m0 0h2l2 7v5l-5 1-1-5z" fill="#EC7A12"/>
<path transform="translate(1110,624)" d="m0 0h6l1 5 3 1h-9l-4 2 1-7z" fill="#E79A13"/>
<path transform="translate(1406,550)" d="m0 0 3 1v19l-3 3z" fill="#FCC70C"/>
<path transform="translate(1409,534)" d="m0 0h1l1 39 4 2h-7l-1-4 1-1z" fill="#E4AD13"/>
<path transform="translate(1161,594)" d="m0 0 2 3 2 12h-6l1-12z" fill="#EA8513"/>
<path transform="translate(1111,607)" d="m0 0h2l1 2v10h-5l1-11z" fill="#E6A013"/>
<path transform="translate(1357,574)" d="m0 0h1v10l2 1-9 2 2-4v-4l-3-1h5z" fill="#EB7412"/>
<path transform="translate(818,943)" d="m0 0 2 1-11 13-3 8h-1v-7l7-8 2-3h2z" fill="#E98D13"/>
<path transform="translate(1276,599)" d="m0 0h3v2l-4 2-10 2-7-1v-3l1 1h7z" fill="#E89013"/>
<path transform="translate(1096,595)" d="m0 0 2 1-2 8-1 10h-2l-1-8z" fill="#E79613"/>
<path transform="translate(1079,594)" d="m0 0 4 1 1 5 3-1-2 8-2 1-2-12z" fill="#E69C13"/>
<path transform="translate(961,647)" d="m0 0h4 1v5l-2 2-4-1v-5z" fill="#E4AA13"/>
<path transform="translate(731,817)" d="m0 0 3 1-4 4-4 2-4-1 5-4z" fill="#E4B513"/>
<path transform="translate(984,649)" d="m0 0h7l1 4 3 1-5 1-2-5h-3l-1 3z" fill="#E98D13"/>
<path transform="translate(926,660)" d="m0 0 5 1 1 3 4 2h-6l-3-2z" fill="#E6A113"/>
<path transform="translate(1265,565)" d="m0 0 4 1 1 7h-3z" fill="#E8A213"/>
</svg>