<svg viewBox="0 0 300 300" xmlns="http://www.w3.org/2000/svg">
  <ellipse ry="150" rx="149" cy="150" cx="150" fill="#fff" />
  <g>
    <path class="color-icons" fill="#242b49"
      d="m171.70138,110.937496c0,-4.791666 -3.888889,-8.680555 -8.680555,-8.680555l-26.041665,0c-4.791666,0 -8.680555,3.888889 -8.680555,8.680555l0,4.340277l43.402774,0l0,-4.340277zm30.381942,13.020832l-104.166659,0c-4.791666,0 -8.680555,3.888889 -8.680555,8.680555l0,52.083329c0,4.791666 3.888889,8.680555 8.680555,8.680555l104.166659,0c4.791666,0 8.680555,-3.888889 8.680555,-8.680555l0,-52.083329c0,-4.791666 -3.888889,-8.680555 -8.680555,-8.680555zm-52.083329,60.763884c-14.379339,0 -26.041665,-11.666666 -26.041665,-26.041665c0,-14.379339 11.662325,-26.041665 26.041665,-26.041665c14.374999,0 26.041665,11.662325 26.041665,26.041665c0,14.374999 -11.666666,26.041665 -26.041665,26.041665zm47.743052,-43.402774c-2.395833,0 -4.340277,-1.940104 -4.340277,-4.340277c0,-2.395833 1.944444,-4.340277 4.340277,-4.340277c2.400173,0 4.340277,1.944444 4.340277,4.340277c0,2.400173 -1.940104,4.340277 -4.340277,4.340277zm-47.743052,0c-9.587673,0 -17.36111,7.773437 -17.36111,17.36111c0,9.587673 7.773437,17.36111 17.36111,17.36111c9.587673,0 17.36111,-7.773437 17.36111,-17.36111c0,-9.587673 -7.773437,-17.36111 -17.36111,-17.36111zm0,-130.208323c-76.705723,0 -138.888878,62.183155 -138.888878,138.888878c0,76.710064 62.183155,138.888878 138.888878,138.888878c76.705723,0 138.888878,-62.178815 138.888878,-138.888878c0,-76.705723 -62.183155,-138.888878 -138.888878,-138.888878zm69.444439,173.611098c0,9.587673 -7.773437,17.36111 -17.36111,17.36111l-104.166659,0c-9.587673,0 -17.36111,-7.773437 -17.36111,-17.36111l0,-52.083329c0,-9.587673 7.773437,-17.36111 17.36111,-17.36111l21.701387,0l0,-4.340277c0,-9.587673 7.773437,-17.36111 17.36111,-17.36111l26.041665,0c9.587673,0 17.36111,7.773437 17.36111,17.36111l0,4.340277l21.701387,0c9.587673,0 17.36111,7.773437 17.36111,17.36111l0,52.083329z" />
  </g>
</svg>