<svg viewBox="0 0 300 300" xmlns="http://www.w3.org/2000/svg">
  <ellipse ry="150" rx="149" cy="150" cx="150" fill="#fff" />
  <g transform="matrix(10.524504661561, 0, 0, 10.57676410675, -11645.337195447655, 9342.426891484412)"
    style="transform-origin: -1223.79px 1273.4px;">
    <g transform="translate(-10.016 -6.0476)">
      <path class="color-check-success" fill="#2cde73"
        d="m21.938 303.08c-6.1754-0.58485-11.204-5.6246-11.804-11.83-0.67983-7.0324 4.0817-13.253 11.073-14.465 0.36056-0.0626 1.3418-0.11231 2.1805-0.11059 6.3244 0.013 11.765 4.5413 12.98 10.805 0.24712 1.273 0.20034 3.8962-0.09262 5.1926-1.5056 6.6628-7.5512 11.052-14.338 10.409zm4.7969-12.507 6.0139-6.0157-0.99678-1.0073-0.99678-1.0073-5.0592 5.0572-5.0593 5.0572-2.3863-2.3821-2.3863-2.3821-0.9959 1.0064-0.9959 1.0064 3.3383 3.3414c1.8361 1.8378 3.377 3.3414 3.4243 3.3414 0.04731 0 2.7923-2.707 6.1-6.0157z" />
    </g>
  </g>
</svg>
