<!-- <svg viewBox="0 0 32 32" xmlns="http://www.w3.org/2000/svg">
  <path d="M9.92 16h5" fill="none" stroke="#242b49" stroke-linecap="round" stroke-linejoin="round" stroke-width="2px"
    class="stroke-000000"></path>
  <path d="M23.93 25v3h-16V4h16v3h2V3a1 1 0 0 0-1-1h-18a1 1 0 0 0-1 1v26a1 1 0 0 0 1 1h18a1 1 0 0 0 1-1v-4Z"
    fill="#242b49" class="fill-000000"></path>
  <path d="m16.92 16-4 4M16.92 16l-4-4M24.92 8.09v-2M24.92 26v-2" fill="none" stroke="#242b49" stroke-linecap="round"
    stroke-linejoin="round" stroke-width="2px" class="stroke-000000"></path>
</svg> -->

<svg xmlns="http://www.w3.org/2000/svg" viewBox="0 0 24 24">
  <g id="sign-out">
    <path fill="#ffffff"
      d="M9,20.75H6a2.64,2.64,0,0,1-2.75-2.53V5.78A2.64,2.64,0,0,1,6,3.25H9a.75.75,0,0,1,0,1.5H6a1.16,1.16,0,0,0-1.25,1V18.22a1.16,1.16,0,0,0,1.25,1H9a.75.75,0,0,1,0,1.5Z" />
    <path fill="#ffffff"
      d="M16,16.75a.74.74,0,0,1-.53-.22.75.75,0,0,1,0-1.06L18.94,12,15.47,8.53a.75.75,0,1,1,1.06-1.06l4,4a.75.75,0,0,1,0,1.06l-4,4A.74.74,0,0,1,16,16.75Z" />
    <path fill="#ffffff" d="M20,12.75H9a.75.75,0,0,1,0-1.5H20a.75.75,0,0,1,0,1.5Z" />
  </g>
</svg>