<?xml version="1.0" encoding="utf-8"?>
<svg viewBox="0 0 24 24" xmlns="http://www.w3.org/2000/svg">
  <g id="globe" transform="matrix(0.5826749205589294, 0, 0, 0.5877310037612915, 4.986499786376951, 3.7068200111389156)"
    style="">
    <path fill="#242b49"
      d="M 11.666 3.354 C 5.825 3.414 2.24 9.881 5.212 14.994 C 8.184 20.107 15.485 20.032 18.353 14.859 C 19.008 13.679 19.345 12.346 19.331 10.991 C 19.287 6.731 15.856 3.312 11.666 3.354 Z M 18.026 10.362 L 15.699 10.386 C 15.384 8.323 14.506 6.393 13.164 4.815 C 15.775 5.433 17.722 7.653 18.026 10.362 Z M 9.061 11.74 L 14.439 11.684 C 14.071 13.719 13.158 15.611 11.805 17.155 C 10.42 15.639 9.471 13.766 9.061 11.74 Z M 9.047 10.453 C 9.417 8.419 10.328 6.527 11.682 4.983 C 13.067 6.5 14.016 8.373 14.426 10.399 L 9.047 10.453 Z M 10.196 4.845 C 8.887 6.45 8.048 8.399 7.775 10.468 L 5.449 10.491 C 5.697 7.777 7.599 5.516 10.196 4.845 Z M 5.461 11.751 L 7.788 11.727 C 8.104 13.789 8.982 15.72 10.323 17.298 C 7.72 16.684 5.776 14.475 5.461 11.776 L 5.461 11.751 Z M 13.289 17.268 C 14.599 15.662 15.439 13.714 15.712 11.645 L 18.039 11.622 C 17.799 14.346 15.897 16.619 13.29 17.294 L 13.289 17.268 Z"
      style="transform-origin: 11.744px 11.069px;" />
  </g>
  <path fill="#242b49"
    d="M 16.763 2.927 L 6.893 2.927 C 5.71 2.927 4.735 3.771 4.735 4.796 L 4.735 19.752 C 4.735 20.777 5.71 21.621 6.893 21.621 L 16.763 21.621 C 17.947 21.621 18.921 20.777 18.921 19.752 L 18.921 4.796 C 18.921 3.771 17.947 2.927 16.763 2.927 Z M 17.071 19.752 C 17.071 19.901 16.936 20.019 16.763 20.019 L 6.893 20.019 C 6.72 20.019 6.586 19.901 6.586 19.752 L 6.586 4.796 C 6.586 4.647 6.72 4.529 6.893 4.529 L 16.763 4.529 C 16.936 4.529 17.071 4.647 17.071 4.796 L 17.071 19.752 Z M 11.785 16.56 C 11.744 16.58 12.9 16.6 11.848 16.582 C 10.796 16.563 11.101 16.612 11.752 16.533 C 12.403 16.454 10.983 16.583 11.817 16.6 C 12.652 16.617 11.827 16.541 11.785 16.56 Z"
    style="stroke-miterlimit: 18.75;"
    transform="matrix(0.9999999999999999, 0, 0, 0.9999999999999999, 0, -4.440892098500626e-16)" />
  <rect fill="#242b49" x="8.104" y="16.449" width="7.45" height="1.357" style="stroke: rgba(0, 0, 0, 0);"
    transform="matrix(0.9999999999999999, 0, 0, 0.9999999999999999, 0, -4.440892098500626e-16)" />
</svg>