<svg xmlns="http://www.w3.org/2000/svg" id="Layer_2" viewBox="0 0 355.55 533.93"><g id="_&#xEB;&#xEE;&#xE9;_1"><circle cx="177.77" cy="177.77" r="167.77" fill="#fff" stroke="#43e3a1" stroke-miterlimit="10" stroke-width="20"></circle><g><path d="M241.95,237.22l-15.85,32.78-66.79-1.6-11.95,1.91-11.21,12.14s5.46,2.65,13.66-5.84c4.7-.33,7.66-.81,9.5-1.33v2.64s66.79,24.17,81.46,21.43c14.68-2.73,38.73-50.54,38.73-50.54l-37.56-11.61Z" fill="#fff" stroke="#201f45" stroke-miterlimit="10"></path><polygon points="59.16 208.83 54.03 214.17 59.51 245.64 64.71 248.64 59.16 208.83" fill="#b7c2e2" stroke="#201f45" stroke-miterlimit="10"></polygon><path d="M253.48,190.6c79.12,4.01,70.15,138.54,70.15,138.54h-84.82s-14.79-49.17,14.68-138.54Z" fill="#b7c2e2" stroke="#201f45" stroke-miterlimit="10"></path><g><path d="M251.16,507.87s-.05,10.66-21.45,17.06c-4.39,1.31-2.96,2.61-3.79,4.46h24.64l9.65-10.84,3,2.58,6.96-6.83s-3.25-9.89-8.54-9.98c-4.37,1.49-10.45,3.56-10.45,3.56Z" fill="#222c53"></path><path d="M245.5,494.82l5.66,13.05h0c3.64,1.04,7.56-.15,10.01-3.04l.44-.52-3.23-9.49h-12.88Z" fill="#fff" stroke="#201f45" stroke-miterlimit="10"></path></g><g><path d="M268.13,169.02l2.69,24.91s-3.54,6.65-11.15,7.47c-7.61,.82-8.2-4.66-8.2-4.66l-1.75-16.23,10.94-4.15,7.47-7.34Z" fill="#fff" stroke="#201f45" stroke-miterlimit="10"></path><path d="M249.27,185.42c-2.35,.18-4.56,.03-5.81-.86-7.92-10.04-3.35-39.88-3.35-39.88l24.99,1.75,2.88,19.36c.77,5.17-.97,10.39-4.68,14.07h0c-4.06,3.14-8.91,5.16-14.03,5.56Z" fill="#fff" stroke="#201f45" stroke-miterlimit="10"></path><path d="M253.62,148.18s-7.97,2.4-16.7,1.8c-8.72-.6-4.26-10.62-4.26-10.62,0,0,6.65,2.21,17.73-.67,7.48-1.94,9.36-3.64,14.51-1.57,7,2.82,6.69,14.95,6.69,14.95l-.92,25.71-1.4,1.79s-1.93-16.66-2.48-21.78c-1.68-2.18-3.23-2.01-4.37-1.3-1.23,.77-1.81,2.26-1.66,3.7l2.83,26.28s-15.96,9.02-20.36,8.17c-4.4-.85-3.65-20.63-3.65-20.63,0,0,4.68-2.66,8.94,1.19,4.23,3.82,8.33-1.07,8.33-1.07l-3.24-25.95Z" fill="#4e5ba5" stroke="#201f45" stroke-miterlimit="10"></path><path d="M264.15,164.35c1.9-.05,3.51-2.04,3.6-4.46,.09-2.41-1.37-4.33-3.27-4.29-1.9,.05-3.51,2.04-3.6,4.46" fill="#fff" stroke="#201f45" stroke-miterlimit="10"></path></g><path d="M238.8,329.15s-39.45,22.14-59.25,48.9c-5.02,6.78-5.21,15.99-.4,22.93,28.58,41.2,66.37,95.72,66.37,95.72h14.82s-19.58-71.02-43.25-112.91c-2.28-15.48,21.71-54.64,21.71-54.64Z" fill="#201f45" stroke="#201f45" stroke-miterlimit="10"></path><g><path d="M146.36,513.63s-6.87,6.37-22.52,10.36c-3.45,.88-7.16-.3-7.16,5.39h19l15.8-2.73v2.73h8.54s2.38-13.96-2.61-15.75h-11.04Z" fill="#222c53"></path><path d="M148.04,503.61l-1.68,10.03h0c3.11,2.16,7.2,2.3,10.46,.35l.59-.35,2.48-10.03h-11.84Z" fill="#fff" stroke="#201f45" stroke-miterlimit="10"></path></g><path d="M254.65,251.29l-15.85,32.78-65.16-9.33-7.61-1.49c-2.49-.93-5.23-.92-7.7,.05l-10,3.89c-1.03,.4-1.68,1.43-1.59,2.53l-1.22,11.89s2.88,1.25,4.71-8.95c4.41,10.54,18.05,1.33,18.05,1.33l6.34,.81s64.17,31.37,78.84,28.64c14.68-2.73,38.73-50.54,38.73-50.54l-37.56-11.61Z" fill="#fff" stroke="#201f45" stroke-miterlimit="10"></path><path d="M323.63,329.15s12.34,51.92-101.48,69.78c-7.92,1.24-14.24,7.13-16.21,14.9-9.76,38.56-45.7,93.8-45.7,93.8h-14.71l23.86-105.35c1.71-7.55,5.67-14.4,11.36-19.64l58.05-53.48h84.82Z" fill="#201f45" stroke="#201f45" stroke-miterlimit="10"></path><g><polygon points="252.57 533.35 271.71 393.87 275.21 394.35 256.13 533.35 252.57 533.35" fill="#201f45" stroke="#201f45" stroke-miterlimit="10"></polygon><g><g><path d="M247.19,394.12h83.91v-16.48c-29.43-13.54-83.91,8.24-83.91,8.24v8.24Z" fill="#b7c2e2" stroke="#201f45" stroke-miterlimit="10"></path><path d="M331.1,392.35v-3.53c.47,0,11.77-.37,11.77-18.83,0-20.02-12.51-50.34-12.64-50.65l3.26-1.36c.53,1.27,12.91,31.29,12.91,52,0,22.11-15.15,22.37-15.3,22.37Z" fill="#b7c2e2" stroke="#201f45" stroke-miterlimit="10"></path><path d="M311.67,323.48c20.6-4.82,23.17-2.1,23.17-2.1,0,0-6.34-24.37-.29-38.92-25.27-14.59-29.94,2.77-29.94,2.77,0,0-4.37,14.74,7.06,38.26Z" fill="#201f45" stroke="#201f45" stroke-miterlimit="10"></path></g><polygon points="339.36 533.35 320.28 394.35 323.78 393.87 342.92 533.35 339.36 533.35" fill="#201f45" stroke="#201f45" stroke-miterlimit="10"></polygon></g></g><g><path d="M6.41,301.48H188.07c0-3.67-2.97-6.64-6.64-6.64H13.04c-3.67,0-6.64,2.97-6.64,6.64h0Z" fill="#201f45" stroke="#201f45" stroke-miterlimit="10"></path><polygon points="184.67 533.35 188.74 532.63 170.07 301.24 166 301.95 184.67 533.35" fill="#201f45" stroke="#201f45" stroke-miterlimit="10"></polygon><polygon points="11.97 533.35 7.9 532.63 26.57 301.24 30.64 301.95 11.97 533.35" fill="#201f45" stroke="#201f45" stroke-miterlimit="10"></polygon></g><rect x="127.85" y="291.67" width="38.15" height="3.17" transform="translate(293.85 586.51) rotate(-180)" fill="#b7c2e2" stroke="#201f45" stroke-miterlimit="10"></rect><path d="M86.91,294.16h27.05v-4.1h-27.05c-7.31,0-13.57-5.46-14.56-12.7l-18.51-114.05-4.04,.66,18.5,114c1.27,9.21,9.27,16.19,18.62,16.19Z" fill="#b7c2e2" stroke="#201f45" stroke-miterlimit="10"></path><polygon points="53.84 163.31 56.6 165.44 74.01 269.83 71.57 272.57 53.84 163.31" fill="#201f45" stroke="#201f45" stroke-miterlimit="10"></polygon></g></g></svg>