<svg xmlns="http://www.w3.org/2000/svg" viewBox="0 0 24 24">
  <g id="card-front">
    <path fill="#242b49"
      d="M19,18.75H5A1.76,1.76,0,0,1,3.25,17V7A1.76,1.76,0,0,1,5,5.25H19A1.76,1.76,0,0,1,20.75,7V17A1.76,1.76,0,0,1,19,18.75ZM5,6.75A.25.25,0,0,0,4.75,7V17a.25.25,0,0,0,.25.25H19a.25.25,0,0,0,.25-.25V7A.25.25,0,0,0,19,6.75Z" />
    <path fill="#242b49" d="M17,9.75H7a.75.75,0,1,1,0-1.5h9a.75.75,0,0,1,0,1.5Z" />
    <path fill="#242b49" d="M16,12.75H7a.75.75,0,0,1,0-1.5h7a.75.75,0,0,1,0,1.5Z" />
    <path fill="#242b49" d="M15,15.75H7a.75.75,0,0,1,0-1.5h7a.75.75,0,0,1,0,1.5Z" />
  </g>
</svg>