<svg xmlns="http://www.w3.org/2000/svg" viewBox="0 0 250.01 46.98"><g id="Layer_2" data-name="Layer 2"><g id="Logo"><path d="M88.4,28.11c0-10.8-20.21-2.64-20.21-16.32,0-4.89,4-9.6,11.67-9.6s11.61,4.8,11.76,11H88.21C88.07,8.53,85,5.36,79.9,5.36s-8.2,2.5-8.2,6.29C71.7,21.59,92,14.14,92,27.87c0,5.91-5.13,9.8-12.77,9.8-8.78,0-12.48-5.14-12.72-11h3.46c.38,5.14,4,7.83,9.36,7.83C84.85,34.5,88.4,32.29,88.4,28.11Z" fill="#fff"/><path d="M100.21,25.76c.33,4.95,3.55,8.74,8.69,8.74a7.91,7.91,0,0,0,7.68-5.14h3.55a11.41,11.41,0,0,1-11.28,8.21c-7.73,0-12-5.95-12-12.82S101.46,12,108.8,12s11.76,5.57,11.76,12.49c0,.52,0,1.29,0,1.29ZM100.3,23h16.85c-.43-4.71-3.55-7.92-8.35-7.92S100.88,18.46,100.3,23Z" fill="#fff"/><path d="M136.3,37.57c-7.48,0-11.52-6.05-11.52-12.77S128.82,12,136.3,12c4.47,0,7.59,2,9.27,5.09V12.56h3.26V47h-3.41V32.58C143.79,35.55,140.77,37.57,136.3,37.57ZM137,15.06c-5.48,0-8.74,4.32-8.74,9.74s3.26,9.75,8.74,9.75,8.59-4.37,8.59-9.75S142.45,15.06,137,15.06Z" fill="#fff"/><path d="M156.51,27.73V12.56h3.41V27.49c0,4.42,2.35,7.1,6.72,7.1s6.72-2.68,6.72-7.1V12.56h3.41V27.73c0,5.42-3.22,9.84-10.13,9.84S156.51,33.15,156.51,27.73Z" fill="#fff"/><path d="M186,25.76c.34,4.95,3.55,8.74,8.69,8.74a7.9,7.9,0,0,0,7.68-5.14h3.55a11.41,11.41,0,0,1-11.28,8.21c-7.73,0-12.05-5.95-12.05-12.82S187.23,12,194.57,12s11.77,5.57,11.77,12.49c0,.52-.05,1.29-.05,1.29Zm.1-2.78h16.85c-.43-4.71-3.56-7.92-8.36-7.92S186.65,18.46,186.08,23Z" fill="#fff"/><path d="M215.65,16.3A8.87,8.87,0,0,1,223.71,12c6,0,9.26,4,9.26,9.41V37h-3.4V22.07c0-4.42-2.07-7.11-6.44-7.11-4.12,0-7.34,2.59-7.34,7.49V37h-3.41V12.56h3.27Z" fill="#fff"/><path d="M245,37h-3.41V15.44H237V12.56h4.65v-7H245v7h5v2.88h-5Z" fill="#fff"/><circle cx="49.78" cy="8.2" r="8.2" fill="#fff"/><circle cx="8.2" cy="8.2" r="8.2" fill="#fff"/><circle cx="8.2" cy="28.05" r="8.2" fill="#fff"/><circle cx="28.99" cy="28.05" r="8.2" fill="#fff"/><circle cx="28.99" cy="8.2" r="8.2" fill="#43e3a1"/></g></g></svg>