<svg width="520" height="370" xmlns="http://www.w3.org/2000/svg">

 <g>
  <title>background</title>
  <rect fill="none" id="canvas_background" height="372" width="522" y="-1" x="-1"/>
 </g>
 <g class="currentLayer">
  <title>Layer 1</title>
  <path id="svg_4" fill="#004f71" d="m484.29248,8.38949l-448.584,0c-17.514,0 -31.708,14.207 -31.708,31.721l0,251.514l0,37.374c0,17.515 14.19401,31.708 31.708,31.708l448.58301,0c17.515,0 31.708,-14.194 31.708,-31.708l0,-37.374l0,-251.514c0.001,-17.514 -14.193,-31.721 -31.707,-31.721l-0.00001,0z"/>
  <path stroke-width="3" id="svg_5" fill="#ffffff" d="m516,39.558l0,251.514l-512,0l0,-251.514c0,-17.515 14.194,-31.721 31.708,-31.721l448.583,0c17.515,0 31.709,14.207 31.709,31.721z"/>
  <path id="svg_6" fill="#ffffff" d="m418.9355,39.558l0,288.887c0,17.515 -14.194,31.708 -31.708,31.708l-286.163,0l27.843,-69.082l114.173,-283.234l144.145,0c17.516,0 31.71,14.207 31.71,31.721z"/>
  <path stroke="#004f71" id="svg_7" fill="#004f71" d="m418.9355,291.072l0,37.374c0,17.515 -14.194,31.708 -31.708,31.708l-286.163,0l27.843,-69.082l290.028,0z"/>
  <g id="svg_8"/>
  <g id="svg_9"/>
  <g id="svg_10"/>
  <g id="svg_11"/>
  <g id="svg_12"/>
  <g id="svg_13"/>
  <g id="svg_14"/>
  <g id="svg_15"/>
  <g id="svg_16"/>
  <g id="svg_17"/>
  <g id="svg_18"/>
  <g id="svg_19"/>
  <g id="svg_20"/>
  <g id="svg_21"/>
  <g id="svg_22"/>
  <rect fill="#ffffff" stroke="#2CDE73" stroke-width="5" x="79.999992" y="34.199997" width="360" height="229.600006" id="svg_1" rx="20" fill-opacity="0"/>
  <rect fill="#ffffff" stroke="#5fc9ed" stroke-width="0" x="255" y="-22" width="10" height="114" id="svg_25" transform="rotate(90 260.00000000000006,35.00000000000002) "/>
  <rect fill="#ffffff" stroke="#5fc9ed" stroke-width="0" x="255" y="207" width="10" height="114" id="svg_26" transform="rotate(90 260,264.00000000000006) "/>
  <rect fill="#b2ebff" stroke="#004f71" stroke-width="3" x="2.838181" y="6.934175" width="512" height="352" id="svg_27" fill-opacity="0" rx="30"/>
  <line fill="none" stroke="#004f71" stroke-width="3" fill-opacity="0" x1="4.499997" y1="290" x2="515.5" y2="290" id="svg_29" stroke-linejoin="null" stroke-linecap="null"/>
  <g id="svg_60" stroke="null">
   <g id="svg_58" stroke="null">
    <title>background</title>
    <rect stroke-width="0" transform="matrix(2.6726932471425964,0,0,2.2064092930726193,139.9141979552529,233.96577271080946) " fill="none" id="svg_56" height="82" width="102" y="-80.249248" x="-6.651862" stroke="null"/>
   </g>
   <g id="svg_59" stroke="null">
    <title>Layer 1</title>
    <g stroke-width="0" id="svg_53" stroke="null">
     <g stroke-width="0" id="svg_54" stroke="null">
      <path id="svg_55" stroke-width="0.33617" d="m165.23764,233.48379c-18.84742,-1.44424 -30.38711,-8.05296 -34.04153,-19.49509c-2.12015,-6.63828 -2.12015,-127.08162 0,-133.72029c3.81679,-11.95055 14.85199,-17.91961 36.19656,-19.57927c18.86833,-1.4673 163.28273,-1.4673 182.14885,0c21.34458,1.65986 32.37933,7.62901 36.19656,19.57927c2.12016,6.63838 2.12016,127.08162 0,133.72029c-3.81679,11.95055 -14.85198,17.91961 -36.19656,19.57927c-17.12692,1.33194 -166.71493,1.26307 -184.30498,-0.08609l0.0011,0.00191l0,0zm198.0118,-13.43133c10.9022,-4.21087 10.43071,-0.90875 10.43071,-73.03774c0,-62.95251 -0.0858,-64.87619 -3.05554,-68.15822c-6.17368,-6.82491 -6.81766,-6.86432 -112.15168,-6.86432s-105.98142,0.03827 -112.15169,6.86432c-2.96929,3.28251 -3.05554,5.20638 -3.05554,68.15822c0,69.97859 -0.1891,68.27875 8.03642,72.21412c5.98601,2.86391 26.28717,3.41509 117.02497,3.17709c78.48858,-0.20566 90.11187,-0.4936 94.92686,-2.35366l-0.00451,0.00019l0,0zm-195.19563,-32.19656c1.91191,-12.12944 10.24205,-20.1494 23.70971,-22.82687c10.81672,-2.15058 45.11699,-1.76345 54.32014,0.61317c13.62541,3.51859 19.56686,9.72937 22.32803,23.3415l1.0026,4.94323l-15.49663,0l0,-4.43595c0,-10.95667 -11.25367,-14.73611 -40.87733,-13.72884c-25.41812,0.86475 -30.1308,3.12879 -30.90964,14.84995c-0.20319,3.06019 -0.78512,3.31302 -7.62665,3.31388l-7.40674,0.00086l0.95651,-6.07093l0,0zm113.15274,-39.40726l0,-5.93195l66.70137,0l0,11.86351l-66.70137,0l0,-5.93156zm-73.30617,0.6983c-10.55656,-2.93804 -14.61767,-9.55891 -14.61767,-23.83223c0,-17.9837 5.20496,-23.63804 22.64705,-24.59845c18.87823,-1.04028 26.44668,5.79994 26.44668,23.90206c0.00033,12.87652 -2.83069,19.43292 -9.73074,22.53511c-5.81869,2.61644 -18.76162,3.65939 -24.74598,1.99389l0.00066,-0.00038l0,0zm20.45902,-23.08131c0.0132,-12.33223 -1.36914,-13.8685 -11.00286,-13.8685c-8.27381,0 -10.2427,2.58736 -10.43005,12.5092c-0.20736,10.97962 -0.0385,12.63163 10.97118,13.18932c9.67628,-0.85423 10.07352,-2.76758 10.46129,-11.83002l0.00044,0zm51.33236,-17.16392l0,-5.93194l68.21726,0l0,11.8635l-68.21726,0l0,-5.93156z" fill="#FFA06A" stroke="null"/>
     </g>
    </g>
   </g>
  </g>
  <rect fill="#ffffff" stroke="#5fc9ed" stroke-width="0" x="75" y="91" width="10" height="114" id="svg_61"/>
  <rect fill="#ffffff" stroke="#5fc9ed" stroke-width="0" x="435.499695" y="91" width="10" height="114" id="svg_62"/>
 </g>
 <g>
  <title>Layer 1</title>
  <rect fill="none" y="0" x="0" height="100%" width="100%" id="backgroundrect"/>
  <g stroke="null" id="svg_30">
   <path stroke="null" id="svg_24" fill="#2CDE73" d="m260.000007,292.145409c-18.116752,0 -32.854599,14.737845 -32.854599,32.854596s14.737847,32.854596 32.854599,32.854596s32.854599,-14.737845 32.854599,-32.854596s-14.737847,-32.854596 -32.854599,-32.854596zm0,0"/>
   <path stroke="null" id="svg_28" fill="#fafafa" d="m276.651898,318.037654l-17.796408,17.795905c-0.533906,0.533908 -1.234754,0.802616 -1.935602,0.802616s-1.401694,-0.268708 -1.935602,-0.802616l-8.897953,-8.897953c-1.070822,-1.070321 -1.070822,-2.800883 0,-3.871203c1.070321,-1.070822 2.800381,-1.070822 3.871203,0l6.962351,6.962351l15.860806,-15.860303c1.070321,-1.070822 2.800381,-1.070822 3.871203,0c1.070321,1.070321 1.070321,2.800381 0,3.871203zm0,0"/>
  </g>
 </g>
</svg>