<svg xmlns="http://www.w3.org/2000/svg" width="520" height="370"><rect id="backgroundrect" width="100%" height="100%" x="0" y="0" fill="none" stroke="none"/>
 <g style="">
  <title>background</title>
  <rect x="-1" y="-1" width="522" height="372" id="canvas_background" fill="none"/>
 </g>

 <g style="" class="currentLayer">
  <title>Layer 1</title>
  <path d="m484.292485,8.389486181259155 l-448.584,0 c-17.514,0 -31.708,14.207 -31.708,31.721 l0,251.514 l0,37.374 c0,17.515 14.194,31.708 31.708,31.708 l448.583,0 c17.515,0 31.708,-14.194 31.708,-31.708 l0,-37.374 l0,-251.514 c0.0010000000000000002,-17.514 -14.193,-31.721 -31.707,-31.721 z" fill="#004f71" id="svg_4" class="" fill-opacity="1"/>
  <path d="m515.999997,39.558l0,251.514l-512,0l0,-251.514c0,-17.515 14.194,-31.721 31.708,-31.721l448.583,0c17.515,0 31.709,14.207 31.709,31.721z" fill="#ffffff" id="svg_5" stroke-width="3" class="" fill-opacity="1"/>
  <path d="m418.935498,39.558l0,288.887c0,17.515 -14.194,31.708 -31.708,31.708l-286.163,0l27.843,-69.082l114.173,-283.234l144.145,0c17.516,0 31.71,14.207 31.71,31.721z" fill="#ffffff" id="svg_6" class="" fill-opacity="1"/>
  <path d="m418.935498,291.072 l0,37.374 c0,17.515 -14.194,31.708 -31.708,31.708 l-286.163,0 l27.843,-69.082 l290.028,0 z" fill="#004f71" id="svg_7" class="" fill-opacity="1" stroke-opacity="1" stroke="#004f71" stroke-width="1"/>
  <g id="svg_8"/>
  <g id="svg_9"/>
  <g id="svg_10"/>
  <g id="svg_11"/>
  <g id="svg_12"/>
  <g id="svg_13"/>
  <g id="svg_14"/>
  <g id="svg_15"/>
  <g id="svg_16"/>
  <g id="svg_17"/>
  <g id="svg_18"/>
  <g id="svg_19"/>
  <g id="svg_20"/>
  <g id="svg_21"/>
  <g id="svg_22"/>
  <rect fill-opacity="0" rx="20" id="svg_1" height="229.60000610351562" width="360" y="34.19999694824219" x="79.99999237060547" stroke-width="5" stroke="#00b2a9" fill="#ffffff" class="" stroke-opacity="1"/>

  
  <rect transform="rotate(90 260.00000000000006,35.00000000000002) " id="svg_25" height="114" width="10" y="-22" x="255" stroke-width="0" stroke="#5fc9ed" fill="#ffffff" class="" fill-opacity="1"/>
  <rect transform="rotate(90 260,264.00000000000006) " id="svg_26" height="114" width="10" y="207" x="255" stroke-width="0" stroke="#5fc9ed" fill="#ffffff" class="" fill-opacity="1"/>
  <rect rx="30" fill-opacity="0" id="svg_27" height="352" width="512" y="6.93417501449585" x="2.8381805419921875" stroke-width="3" stroke="#004f71" fill="#b2ebff" class="" stroke-opacity="1"/>

  <line stroke-linecap="null" stroke-linejoin="null" id="svg_29" y2="290" x2="515.5" y1="290" x1="4.499997138977051" fill-opacity="0" stroke-opacity="1" stroke-width="3" stroke="#004f71" fill="none" class=""/>
  <g stroke="null" id="svg_60" class="">
   <g stroke="null" id="svg_58">
    <title stroke="null" transform="translate(-0.3571428656578064,0) translate(0,0.3571428656578064) translate(0.3571428656578064,0) translate(0,0.3571428656578064) translate(-0.3571428656578064,0) translate(0,0.3571428656578064) translate(0,0.3571428656578064) translate(0,0.3571428656578064) translate(-0.3571428656578064,0) translate(0.3571428656578064,0) translate(0.3571428656578064,0) translate(0.3571428656578064,0) translate(0.3571428656578064,0) translate(0,0.3571428656578064) translate(0,0.3571428656578064) translate(0,-0.3571428656578064) translate(0,-0.3571428656578064) translate(0.3571428656578064,0) translate(-0.3571428656578064,0) translate(-0.3571428656578064,0) translate(-0.3571428656578064,0) translate(-0.3571428656578064,0) translate(-0.3571428656578064,0) translate(-0.3571428656578064,0) translate(-0.3571428656578064,0) translate(-0.3571428656578064,0) translate(-0.3571428656578064,0) translate(-0.3571428656578064,0) translate(-0.3571428656578064,0) translate(-0.3571428656578064,0) translate(-204.41989135742188,-7.734807014465332) translate(208.83978271484375,6.077348232269287) translate(-130.38674926757812,-11.60221004486084) translate(128.1768035888672,8.839778900146484) translate(-0.5524861812591553,0) matrix(2.6726932471425964,0,0,2.2064092930726193,126.36532853805403,61.74367337273131) " stroke-width="0">background</title>
    <rect stroke="null" x="-6.65186228730532" y="-80.24924799487164" width="102" height="81.99999999999957" id="svg_56" fill="none" transform="matrix(2.6726932471425964,0,0,2.2064092930726193,139.9141979552529,233.96577271080946) " stroke-width="0"/>
   </g>
   <g stroke="null" id="svg_59">
    <title stroke="null" transform="translate(-0.3571428656578064,0) translate(0,0.3571428656578064) translate(0.3571428656578064,0) translate(0,0.3571428656578064) translate(-0.3571428656578064,0) translate(0,0.3571428656578064) translate(0,0.3571428656578064) translate(0,0.3571428656578064) translate(-0.3571428656578064,0) translate(0.3571428656578064,0) translate(0.3571428656578064,0) translate(0.3571428656578064,0) translate(0.3571428656578064,0) translate(0,0.3571428656578064) translate(0,0.3571428656578064) translate(0,-0.3571428656578064) translate(0,-0.3571428656578064) translate(0.3571428656578064,0) translate(-0.3571428656578064,0) translate(-0.3571428656578064,0) translate(-0.3571428656578064,0) translate(-0.3571428656578064,0) translate(-0.3571428656578064,0) translate(-0.3571428656578064,0) translate(-0.3571428656578064,0) translate(-0.3571428656578064,0) translate(-0.3571428656578064,0) translate(-0.3571428656578064,0) translate(-0.3571428656578064,0) translate(-0.3571428656578064,0) translate(-204.41989135742188,-7.734807014465332) translate(208.83978271484375,6.077348232269287) translate(-130.38674926757812,-11.60221004486084) translate(128.1768035888672,8.839778900146484) translate(-0.5524861812591553,0) matrix(2.6726932471425964,0,0,2.2064092930726193,126.36532853805403,61.74367337273131) " stroke-width="0">Layer 1</title>
    <g stroke="null" id="svg_53" stroke-width="0">
     <g stroke="null" id="svg_54" stroke-width="0">
      <path stroke="null" fill="#FFA06A" d="m165.23764189018544,233.48379272252063 c-18.84742385678278,-1.4442449181479584 -30.38711103797683,-8.052965876312204 -34.04152727788686,-19.495095572885777 c-2.1201566813878188,-6.63828022346354 -2.1201566813878188,-127.08162053556339 0,-133.7202846742439 c3.8167877000604338,-11.950550383567004 14.851985322003591,-17.919609017167275 36.19655726076339,-19.579274500235083 c18.868324317975432,-1.4672974824419809 163.28272827648652,-1.4672974824419809 182.14885296791954,0 c21.3445719387598,1.659857440676308 32.379328566317184,7.6290109498761804 36.19655726076339,19.579274500235083 c2.1201566813878188,6.638377305472435 2.1201566813878188,127.08162053556339 0,133.7202846742439 c-3.8167877000604338,11.950550383567004 -14.851985322003591,17.919609017167275 -36.19655726076339,19.579274500235083 c-17.126920342026686,1.331940891539856 -166.71493412713588,1.2630678254565932 -184.30498142772066,-0.08609188420640151 l0.0011011496178227585,0.0019129568570939975 l-0.0000026726932471426315,0 zm198.01179787412107,-13.431335646017539 c10.902199060578848,-4.2108637371410085 10.430711917543668,-0.9087515891285267 10.430711917543668,-73.03773422903376 c0,-62.95251315156045 -0.08580414400626686,-64.87619536422804 -3.0555431913295377,-68.15822036203639 c-6.173678185813908,-6.8249093535180885 -6.817655605633175,-6.8643202363109515 -112.1516823258735,-6.8643202363109515 s-105.98141449664294,0.03826354996046561 -112.1516823258735,6.8643202363109515 c-2.9692980529374937,3.282503788624946 -3.0555431913295377,5.206375752491737 -3.0555431913295377,68.15822036203639 c0,69.97859187237444 -0.18910106531508014,68.27874988248907 8.03641976248968,72.21411914888775 c5.986007011386049,2.8639038175432088 26.28716752454112,3.415084716636386 117.02497230306317,3.1770881718298156 c78.48857633946307,-0.20566382302588507 90.11187071081423,-0.4935958229532758 94.92685588481747,-2.353665049292286 l-0.00451150620117678,0.0001919576084973182 l0.0000026726932471426315,0 zm-195.19563178077863,-32.19656205680136 c1.9119137870367036,-12.12943060418428 10.24204917392112,-20.149395216699997 23.7097130285672,-22.826861861797155 c10.816723657841981,-2.150582725139296 45.11698902359822,-1.7634549762139464 54.320135605422536,0.6131677617727525 c13.625411555478934,3.518587376574423 19.566864770435117,9.729373593095849 22.328029509444626,23.341502416587762 l1.0025993997208609,4.943221728925551 l-15.496622897054904,0 l0,-4.435948374764519 c0,-10.956664491865272 -11.253671586044335,-14.736111226341084 -40.87733581605462,-13.7288324302304 c-25.418114588300238,0.8647491685967865 -30.13079441018936,3.1287810467672834 -30.90964127664594,14.849944294589287 c-0.20318081334102736,3.060194813892121 -0.7851170048143734,3.3130184291481397 -7.6266451065310275,3.3138789287724384 l-7.406741251542628,0.0008604996242983286 l0.9565061319806341,-6.070932963480019 l0.0000026726932471426315,0 zm113.15274225428401,-39.407259868803905 l0,-5.931942416472203 l66.70137370934438,0 l0,11.863503124136704 l-66.70137370934438,0 l0,-5.9315607076645005 zm-73.30616800669537,0.6983042707552606 c-10.556558351778627,-2.9380391697904487 -14.6176703050266,-9.558910823931646 -14.6176703050266,-23.832227701050748 c0,-17.983698587903156 5.2049605183870735,-23.638041619167424 22.647050193503308,-24.598447456256075 c18.878223973762847,-1.0402800599071718 26.44667653022384,5.799935154876961 26.44667653022384,23.902058348767202 c0.00032874126939853946,12.87652079081867 -2.8306895084474313,19.4329167525977 -9.73073890150352,22.535106154564872 c-5.818685723341934,2.6164373640507694 -18.761617040083262,3.6593960048397314 -24.745974999735825,1.9938945691917436 l0.0006601552320442217,-0.0003817088077015714 l-0.0000026726932471426315,-0.0000022064092930726592 zm20.459017794411054,-23.08131380711146 c0.013200431947637288,-12.33222609512917 -1.3691405697137378,-13.868493725663308 -11.002855360959487,-13.868493725663308 c-8.27381372208738,0 -10.242709329153165,2.5873568895680723 -10.430051762311626,12.509193358889354 c-0.20736357827280552,10.97962218055969 -0.03850281891833695,12.631635836199127 10.971173255207857,13.189321229888282 c9.676285449286235,-0.8542268026781248 10.073519828529298,-2.7675764006262438 10.461292873677476,-11.830020863114326 l0.0004409943857785325,0 zm51.332358551374305,-17.16391162788061 l0,-5.931942416472203 l68.21726384717897,0 l0,11.863503124136704 l-68.21726384717897,0 l0,-5.9315607076645005 z" stroke-width="0.3361701650208284" id="svg_55"/>
     </g>
    </g>
   </g>
  </g>
  <rect id="svg_61" height="114" width="10" y="91" x="75" stroke-width="0" stroke="#5fc9ed" fill="#ffffff" class="" fill-opacity="1"/>
  <rect id="svg_62" height="114" width="10" y="91" x="435.49969482421875" stroke-width="0" stroke="#5fc9ed" fill="#ffffff" class="" fill-opacity="1"/>
  <g stroke="null" id="svg_73" class="">
   <path stroke="null" id="svg_66" fill="#00B2A9" d="m290.658561,323.499892c0,-16.523763 -13.72605,-29.918533 -30.658557,-29.918533c-16.932039,0 -30.658557,13.39477 -30.658557,29.918533s13.726518,29.918533 30.658557,29.918533c16.932507,0 30.658557,-13.39477 30.658557,-29.918533zm0,0"/>
   <path stroke="null" id="svg_67" fill="#00B2A9" d="m279.653297,300.538277c3.976606,5.045922 6.34273,11.36371 6.34273,18.221106c0,16.523763 -13.726518,29.918533 -30.658557,29.918533c-7.479237,0 -14.331969,-2.614493 -19.653293,-6.956917c5.604866,7.112591 14.411042,11.697427 24.315827,11.697427c16.932507,0 30.658557,-13.39477 30.658557,-29.918533c0,-9.224911 -4.279331,-17.473325 -11.005264,-22.961616zm0,0"/>
   <path stroke="null" id="svg_68" fill="#d6ddea" d="m273.640898,314.364003l-4.944204,0c-1.063516,0 -2.000234,-0.682498 -2.302492,-1.677257l-0.062697,-0.206804c-0.429056,-1.411105 -1.757399,-2.378929 -3.265879,-2.378929l-6.145748,0c-1.51737,0 -2.851796,0.979237 -3.272897,2.401755l-0.049597,0.168c-0.296643,1.002976 -1.237572,1.693235 -2.30717,1.693235l-4.931103,0c-1.233828,0 -2.233712,0.976041 -2.233712,2.179886l0,17.327695c0,1.203845 0.999883,2.179886 2.233712,2.179886l27.281788,0c1.233828,0 2.234179,-0.976041 2.234179,-2.179886l0,-17.327695c0,-1.203845 -1.000351,-2.179886 -2.234179,-2.179886zm0,0"/>
   <path stroke="null" id="svg_69" fill="#bac5d6" d="m273.640898,314.364003l-4.944204,0c-1.063516,0 -2.000234,-0.682498 -2.302492,-1.677257l-0.062697,-0.206804c-0.429056,-1.411105 -1.757399,-2.378929 -3.265879,-2.378929l-3.065622,0c1.508481,0 2.836823,0.967824 3.265879,2.378929l0.062697,0.206804c0.302258,0.994758 1.238975,1.677257 2.302492,1.677257l4.454322,0c1.234296,0 2.234179,0.976041 2.234179,2.179886l0,17.327695c0,1.203845 -0.999883,2.179886 -2.234179,2.179886l3.555504,0c1.233828,0 2.234179,-0.976041 2.234179,-2.179886l0,-17.327695c0,-1.203845 -1.000351,-2.179886 -2.234179,-2.179886zm0,0"/>
   <path stroke="null" id="svg_70" fill="#00B2A9" d="m266.88502,324.701455c0,-3.463165 -2.877062,-6.27031 -6.425547,-6.27031s-6.425547,2.807145 -6.425547,6.27031s2.877062,6.27031 6.425547,6.27031s6.425547,-2.807145 6.425547,-6.27031zm0,0"/>
   <path stroke="null" id="svg_71" fill="#d6ddea" d="m264.71307,324.701455c0,-2.29219 -1.904316,-4.150685 -4.253597,-4.150685s-4.253597,1.858495 -4.253597,4.150685c0,2.292646 1.904316,4.150685 4.253597,4.150685s4.253597,-1.858039 4.253597,-4.150685zm0,0"/>
   <path stroke="null" id="svg_72" fill="#00B2A9" d="m273.249741,317.85182c0,0.50126 -0.416423,0.907563 -0.930167,0.907563c-0.513744,0 -0.930167,-0.406303 -0.930167,-0.907563s0.416423,-0.907563 0.930167,-0.907563c0.513744,0 0.930167,0.406303 0.930167,0.907563zm0,0"/>
  </g>
 </g>
</svg>