<svg viewBox="0 0 128 128" xml:space="preserve" xmlns="http://www.w3.org/2000/svg">
  <path d="M86 110H42c-3.3 0-6-2.7-6-6V24c0-3.3 2.7-6 6-6h44c3.3 0 6 2.7 6 6v80c0 3.3-2.7 6-6 6z" fill="#3E3E42"
    class="fill-3e3e42"></path>
  <path fill="#e9f9fd" d="M40 32h48v64H40z" class="fill-57575e"></path>
  <circle cx="64" cy="103" fill="#d7d7d7" r="4" class="fill-323235"></circle>
  <circle cx="64" cy="103" opacity=".1" r="3.5" fill="#000000" class="fill-000000"></circle>
  <path d="M71 26H55c-.6 0-1-.4-1-1s.4-1 1-1h16c.6 0 1 .4 1 1s-.4 1-1 1z" fill="#d7d7d7" class="fill-323235"></path>
</svg>
